<?xml version="1.0" encoding="UTF-8"?><svg id="Camada_2" xmlns="http://www.w3.org/2000/svg" viewBox="0 0 350.08 129.77"><defs><style>.cls-1{fill:#fff;}.cls-2{fill:#556b69;}.cls-3{fill:#579494;}.cls-4{fill:#fafcfc;}.cls-5{fill:#272a26;}.cls-6{fill:#daeaea;}.cls-7{fill:#405f5f;}.cls-8{fill:#6ebebe;}.cls-9{fill:#c5e3e4;}.cls-10{fill:#f6f5f5;}.cls-11{fill:#9cb3b3;}.cls-12{fill:#39413c;}.cls-13{fill:#5a7170;}.cls-14{fill:#5cabae;}.cls-15{fill:#6e8182;}.cls-16{fill:#7d9091;}.cls-17{fill:#6d8c8c;}.cls-18{fill:#e5f0f1;}.cls-19{fill:#b3d5d7;}.cls-20{fill:#647d7c;}</style></defs><g id="Camada_1-2"><g><path class="cls-18" d="M157.38,119.69c-1.98-1.68-3.87-3.49-5.97-4.99-.83-.6-2.14-.54-3.22-.78,.45,.61,1.33,1.27,1.27,1.82-.17,1.36-.78,2.66-1.21,3.99-.72-.05-1.17-.56-1.64-1-.92-.87-1.86-.66-2.84-.13-1.08,.59-.99,1.44-.62,2.42,.27,.69,.61,1.41-.03,2.11-1.32-.36-2.65-.72-3.97-1.08-.11-.09-.22-.18-.34-.27-.62-1.04-.55-2.14-.26-3.26,.35-.64,.55-1.29,0-1.94-1.28-3.81-1.01-4.3,2.76-5.23,.95-.23,2.27-.23,2.01-1.76-.26-1.54-1.29-2.28-2.84-2.03-1.51,.24-3.01,.68-3.76-1.27-.19-.2-.35-.43-.47-.68-.23-.67-.39-1.37-.6-2.04-.2-1.03-.25-2.05,.11-3.06,.18-.42,.47-.75,.83-1.02,.37-.23,.77-.37,1.2-.45,1.49-.1,2.63-.84,3.68-1.86,.79-.77,1.52-1.72,2.78-1.78,1.86,.4,3.62,.94,5.28,1.98,1.72,1.08,2.95,2.24,2.99,4.44,.04,2.01,1.5,3.3,3,4.26,2.07,1.33,2.79-.52,3.59-1.92,.28-.49,.59-.94,1.04-1.28,.24-.15,.49-.26,.75-.34,5.85-.29,9,3.28,7.84,8.91-.08,.37-.2,.73-.29,1.1-.3,1.18-.45,2.52,1.05,2.75,1.37,.21,1.56-1.09,1.6-2.18,.04-.87,.21-1.67,.7-2.42,1.63-2.5,1.39-3.39-1.16-4.76-.84-.45-2.4-.43-1.99-1.9,.33-1.2,1.69-.98,2.7-1.12,2.51-.36,5.06-.52,7.51-1.3,2-.63,3.76-.36,5.02,1.53,.21,.32,.46,.61,.76,.85,.66,.51,1.44,1.44,2.19,.85,.82-.65-.06-1.53-.46-2.23-.53-.92-2.13-1.84-.99-2.86,1.29-1.15,3.09-1.91,4.91-1.98,1.32-.05,1.88,1.14,2.32,2.21,.5,1.21,.26,2.7,1.31,3.7,.73,.7,1.77,1.22,2.56,.56,.79-.67-.29-1.28-.67-1.84-1.66-2.39-1.48-5.27,.48-6.97,1.25,.1,1.93,1.06,2.72,1.84,.6,.6,1.19,1.33,2.05,1.4,2.62,.2,3.42,1.88,3.6,4.15,.53,1.39-.33,3.5,1.85,4.02,1.68,.4,3.43,.53,4.46-1.39,.59-2.05,.46-4.11,.04-6.17-.2-.71-.22-1.43-.18-2.15,.02-.28,.06-.56,.11-.84,.34-1.84,.64-3.69,.17-5.56-1.86-1.11-3.76-1.43-5.75-.38-1.43,1.01-.69,2.57-.95,3.87-.26,1.3-.31,2.71-2.23,2.49-1.71-.81-1.75-2.77-2.76-4.05-1.13-1.17,.82-3.33-1.34-4.18-.42-.39-.69-.87-.84-1.42-.19-.87-.16-1.71,.21-2.53,1.66-2.09,3.87-3.69,5.33-5.97,.21-.19,.46-.26,.74-.24,2.45,1.87,5.31,3.28,7,6.04,.14,.23,.45,.63,.57,.53,.31-.28,.02-.67-.09-.99-.36-1.01-1.18-1.69-1.84-2.48-.75-.9-1.39-1.86-.41-3.01,.38-.22,.79-.29,1.22-.27,1.27,.18,2.57,.14,3.79,.61,2.49,1.9,3.88,4.35,3.79,7.57-.04,1.23-.03,2.49,.64,3.6,.59,.97,1.41,1.73,2.57,1.09,.99-.54,.8-1.62,.59-2.57-.08-.38-.33-.68-.58-.96q-2.57-2.87,.94-4.63c.32-.16,.79-.23,.74-.7-.03-.28-.4-.37-.68-.44-.46-.12-.95-.15-1.39-.31-1.23-.44-3.36,.11-3.28-1.89,.08-1.79,1.67-2.87,3.36-3.51,.86-.32,2.53,.31,2.51-.57-.03-1.36-1.77-.94-2.77-1.29-.63-.22-1.31-.35-1.84-.74-2.29-1.69-4.24-1.15-6,.85-.38,.21-.78,.27-1.21,.21-2.14-.9-4.09-2.27-6.4-2.78-.79-.32-1.49-.83-2.34-1.01-1.63-.82-4.21-.64-3.85-3.6,.11-.3,.29-.55,.54-.75,1.13-.68,2.39-.42,3.61-.49,1.68-.14,3.44,.4,5.04-.53,.39-.18,.79-.23,1.22-.17,.54,.09,.95,.46,1.45,.64,.52,.1,1.05,.09,1.58,.13,1.57,.52,3.35-.43,4.84,.68-.33,2.45-.33,2.44,2.37,2.87,2.06,.33,4.07,.82,6.08,1.43,3.71,1.14,7.12-.55,10.41-1.84,2.1-.82,3.81-1.25,5.89-.16,1.42,.74,3.09,.9,4.68,1.15,2.4,.37,4.57,1.21,6.44,2.78,.27,.17,.52,.37,.75,.61,.09-.2,.02-.34-.23-.4-.21-.39-.14-.7,.21-.97,.25-.13,.51-.21,.79-.25,3.8,.05,7.51-.06,10.86-2.35,1.96-1.34,4.18-.74,6.29-.05,3.13,1.03,6.15,2.28,9.59,2.16,2.45-.08,4.58-.24,6.41-2.15,.87-.9,1.91-1.83,3.21-2.27,1.33-.31,2.61-.33,3.71,.66,3.74,1.03,7.6,3.16,11.2,2.78,4.12-.43,5.49,2.72,8.27,3.82,1.1,.43,2.45,.32,3.68,.34,.98,.02,2.06-.43,2.94-.16,6.69,2.07,13.53,3.84,19.9,6.66,2.19,.97,3.18,4.67,4.69,7.14,.72,1.18,1.11,2.65,2.06,3.56,4,3.84,4.05,8.38,.1,12.57-.61,.65-.5,1.95-1.01,2.76-.43,.67-1.28,1.07-1.95,1.58-.33-.49-.58-1.05-1-1.45-.55-.53-1.2-.98-1.85-1.37-.58-.35-1.81-.71-1.78-.87,1.25-5.93-2.03-1.88-3.82-1.98-2.34-.13-4.62-1.31-6.96-1.88-.78-.19-1.68,.09-2.52,.16-.42,.62-1.04,.69-1.71,.58-2.67,1.71-5.35,3.43-8.02,5.14-.73,.7-1.46,.57-2.19,0-.5-.7-1.31-2.05-1.45-1.99-2.23,1.04-4.39,2.24-6.53,3.46-1.01,.58-1.95,1.28-2.92,1.93-.1-.08-.2-.16-.3-.24-1.46-2.71-1.69-2.79-4.02-1.27-2.11,.81-2.99,2.16-1.95,4.38l-4-2.85c.18-.23,.44-.27,.7-.31-.27,0-.53-.04-.71-.27-2.02-.12-4.05-.41-6.07-.31-2.17,.1-4.31,.57-6.47,.88-.38-.41-.76-.41-1.15,0-.57,.57-1.14,1.15-1.7,1.72-2.62,2.02-4.92,2.02-7.43,0-2.6,.22-7.98-3.78-5.77,3.8,.09,.3-.29,.95-.61,1.11-.32,.15-.85-.08-1.28-.19-1.78-.47-3.53-1.18-5.33-1.38-2.19-.24-4.42-.06-6.63-.07-.36,0-.84-.22-1.05-.06-2.02,1.52-4.24,.72-5.6-2.04-.18-.36-.53-.89-.82-.9-7.26-.32-14.53-.5-21.78-.9-2.09-.11-4.32-1.53-6.18-1.08-3.73,.9-7.29,2.57-10.84,4.12-2.08,.91-3.99,2.19-5.97,3.31-.9-.13-1.3-2.11-2.5-.85-1.07,1.12,.51,1.74,.81,2.62l-.06,1.64c-.52,.84-1.12,1.52-2.26,1.13-2.28-.57-4.57-1.15-6.85-1.72l-.02,.02c-.05,1.62,0,3.26-.2,4.87-.08,.68-.59,1.7-1.09,1.83-.82,.21-1.79-.18-2.7-.32-.37-1.86,.45-3.6,.54-5.42-.48-.42-1.18-1.29-1.39-1.19-5.09,2.53-9.87,2.17-14.5-1.15-.52-.37-1.39-.23-2.1-.33-.06,.45-.27,1.25-.14,1.3,.63,.29,1.67,.16,1.98,.59,.81,1.15,1.31,2.52,1.93,3.8h0l-6.32-1.76c-1.7-1.93-2.58-4.15-2.53-6.76,.02-1.11,.04-2.44-1.16-3.02-.87-.42-1.58,.39-2.24,.92-1.12,.9-1.29,2.02-.77,3.32,.27,.68,.84,1.31,.48,2.14Z"/><path class="cls-18" d="M139.14,122.03c-.82,.94-1.8,2.76-2.44,2.65-2-.34-4.51-.92-5.6-2.35-.9-1.18-.12-3.69,.05-5.61,.05-.52,.56-1,.85-1.5-1.54-.43-3.09-1.26-4.61-1.19-2.31,.11-4.58,.86-6.87,1.3-1.44,.28-2.89,.5-4.35,.71-1.63,.23-3.29,.31-4.9,.64-.79,.16-1.46,.91-2.25,1.08-1.07,.22-2.21,.2-3.32,.18-2.51-.06-5.01-.21-7.52-.26-1.95-.05-3.89,.04-5.84-.03-1.59-.06-3.67-.92-4.63-.2-.9,.67-.66,2.93-.81,4.5-.12,1.22-.06,2.46-.08,3.69-.82-.79-1.65-1.56-2.44-2.38-2.66-2.74-4.85-6.41-8.07-7.97-2.93-1.42-6.97-.45-10.51-.76-1.34-.12-3-.5-3.88-1.39-4.74-4.75-9.27-9.71-13.92-14.54-.64-.66-1.5-1.3-2.37-1.52-5.67-1.45-5.05-4.73-3.33-9.13,1.14-2.92,.83-6.38,1.38-9.56,.43-2.42,1.2-4.79,1.81-7.18,.98,2.83,2.02,5.58,4.18,7.85,1.12,1.17,.51,2.85-.06,4.33-1.33,3.43,.15,5.55,3.73,5.08,2.63-.35,4.7-.5,5.1,2.97,.14,1.26,1.89,1.87,2.06,3.31-.28,.94-1.07,.92-1.83,.99-2.1,.19-2.05,1.28-1.07,2.69,.54,.78,1.12,1.53,1.76,2.23,.58,.64,1.24,1.36,2.14,.54,.88-.8,1.07-1.69,.14-2.7-.9-.97-2.38-1.86-1.05-3.53,.71-.27,1.33,0,1.87,.41,1.86,1.39,3.47,1.26,4.91-.64,.7-.92,1.55-1.3,2.73-.66,.69,.38,1.59,2.16,2.29,.23,.49-1.35,.72-3.09-1.26-3.84-.27-.1-.55-.16-.83-.21-2.08-.37-3.03-1.66-3.31-3.71-.68-4.92-1.07-5.3-5.86-6.02-2.48-.37-4.21-1.73-5.17-3.98-.78-1.83-2.06-2.88-3.95-3.35-2.53-.63-4.11-2.63-5.93-4.27,.77-.53,1.77-1.67,2.26-1.49,4.25,1.62,8.3,3.82,12.63,5.13,1.93,.58,4.43-.22,6.53-.86,2.79-.85,4.84-6.12,8.55-1.07,.62,.84,2.58,.97,3.92,.97,3.92,0,7.86,0,11.74-.45,3.66-.43,7.26-1.44,10.89-2.19,1.58-.05,2.34,.94,2.86,2.24,.29,1.25,.16,2.59-.56,3.53-1.36,1.77-.53,3.81-1.05,5.66-.11,.37-.03,.77,.3,1.02,.37,.29,.64,.03,.97-.18,3.21-2.06,4.34-1.48,4.55,2.31,.02,.38,.02,.75,.02,1.13,0,.65,.16,1.28,.24,1.92-.05,1.44,.43,2.76,.93,4.07,.2,.43,.37,.88,.71,1.22,.95,.96,1.68,1.51,2.31-.41,.92-2.79,2.5-3.1,4.33-.73,1.7,2.2,3.22,4.25,6.26,4.79,1.69,.3,2.21,2.2,2.72,3.71,.39,1.16,.74,2.33,1.47,3.33,.62,1.57,.28,3.52,1.89,4.68,4.4,1.95,4.41,6.3,5.07,10.03,.43,2.42,1.22,3.95,3.49,4.71l.05,.05Z"/><path class="cls-8" d="M337.71,17.51c.16,.03,.32,.07,.48,.13,1.45,2.07,1.3,2.91-.85,4.67-2.53,.93-5.25,1.1-7.84,1.12-5.4,.05-10.78,.47-16.16,.75-8.69,.44-17.38,1.01-26.06,1.5-5.47,.31-10.95,.78-16.44,.76-1.23,0-2.47-.14-3.66,.33-.85,.31-1.73,.28-2.61,.22-9.35,.04-18.68,.79-28.01,1.25-11.02,.54-22.02,1.41-33.06,1.74-3.15,.09-6.41,.05-9.54,.85-2.34,1.12-3.26-1.24-4.69-2.11-.88-.54-.5-1.92,.73-2.48,7.86-.59,15.74-.82,23.59-1.34,11.18-.74,22.38-.93,33.54-1.86,4.26-.35,8.54-.41,12.8-.6,12.14-.54,24.27-1.24,36.4-1.92,11.47-.65,22.93-1.4,34.39-2.07,2.36-.14,4.58-1.17,6.98-.92Z"/><path class="cls-9" d="M46.08,68.91c3.62,2.67,7.21,5.39,10.89,7.99,1.53,1.08,3.22,2.68,4.87,2.72,4.41,.11,5.44,2.57,6.09,6.24,.24,1.36,2.12,2.45,3.32,3.6,.66,.63,2.08,1.11,2.09,1.66,.02,1.82-.45,3.64-.73,5.46-.84-.54-1.65-1.13-2.53-1.59-.49-.25-1.52-.5-1.59-.38-2.43,4.7-5.32,2.15-8.14,.56h0c-1.02-1.88-1.91-3.85-3.13-5.6-.34-.48-1.64-.25-2.49-.42-1.98-.4-4.42-.31-5.75-1.48-.81-.72,.22-3.39,.18-5.17-.03-1.28-.31-2.61-.74-3.83-.88-2.52-1.94-4.98-2.92-7.47,.19-.77,.38-1.53,.56-2.3Z"/><path class="cls-9" d="M.31,20.49c-1.43-4.98,2.45-3.46,4.48-3.36,12.75,.61,25.48,1.47,38.23,2.18,30.51,1.71,61.02,3.46,91.54,5.01,5.43,.28,10.91-.33,16.37-.53,.68,.4,.69,1.03,.59,1.7-.19,.64-.49,1.22-1.02,1.65-2.22,.9-4.57,.07-6.83,.48-5.8,.2-11.58-.41-17.36-.73-5.02-.27-10.06-.55-15.07-.8-14.13-.7-28.26-1.54-42.39-2.21-8.73-.41-17.45-.96-26.18-1.41-12.89-.67-25.82-1.1-38.65-2.7-.97-.12-1.89-.2-2.76,.32-.3,.19-.62,.32-.96,.39Z"/><path class="cls-9" d="M337.71,17.51c-7.35,.96-14.68,2.38-22.06,2.81-30.15,1.74-60.31,3.19-90.47,4.72-11.95,.6-23.9,1.12-35.86,1.67-.09-.09-.18-.19-.28-.28-.22-.54-.2-1.03,.28-1.43,10.3-.87,20.59-1.98,30.9-2.54,10.3-.56,20.64-.38,30.94-.87,26-1.23,51.99-2.65,77.99-3.97,2.85-.14,5.7-.08,8.56-.1Z"/><path class="cls-8" d="M313.7,56.27c.59,.02,1.17,.03,1.76,.05,.72,2.55-.14,3.9-2.91,4.06-4.53,.27-9.08,.79-13.59,.75-12.52-.11-25.02,.48-37.52,.81-14.29,.39-28.57,.99-42.88,1.07-2.61,.01-5.27,.29-7.86,.87-.55,.34-1.15,.49-1.79,.45-1.1-.3-2.19-1.02-3.33-.07-.57,.16-1.13,.15-1.7,0-1.64-.84-3.68-.43-5.21-1.63-.52-1.06-1.29-2.12,.14-3.09,7.57,.43,15.15,.16,22.69-.14,6.91-.28,13.84,0,20.71-.58,5.79-.49,11.55-.1,17.3-.47,12.57-.8,25.18-.57,37.75-1.26,5.47-.3,10.99,.06,16.43-.82Z"/><path class="cls-3" d="M57.07,27.25c-8.53-.69-17.05-1.38-25.58-2.08-9.77-.81-19.55-1.64-29.32-2.46-.22-.17-.39-.38-.58-.58h0c-.2-.17-.39-.36-.52-.61h.01c-.23-.38-.13-.65,.27-.83,5.59,.16,11.16,.74,16.72,1.2,5.97,.5,11.95,.43,17.92,.85,9.75,.68,19.52,1.18,29.29,1.62,8.07,.36,16.12,.88,24.17,1.36,12.79,.75,25.6,1.35,38.39,2.09,5.97,.35,11.95,.8,17.93,.87,1.47,.02,2.84,.21,4.04,1.09,.88,1.28,.2,1.97-.94,2.48-5.1,.37-10.14-.54-15.22-.73-1.96,.13-3.9-1.09-5.88-.1-8.22-.33-16.42-.79-24.63-1.22-4.53-.24-9.06-.96-13.59-.74-3.52,.17-6.92-1.12-10.43-.56-1.26,.22-2.36-.35-3.5-.72-2.07-.68-4.17-.88-6.28-.14-2.46,.24-4.92,.2-7.39,.06-1.41-.11-2.67-1.2-4.19-.67-.27,.05-.51-.03-.72-.2Z"/><path class="cls-8" d="M23.84,56.07l1.16,.15c2.83,.36,5.68,.34,8.52,.47,9.66,.44,19.33,.57,28.99,.96,5.86,.24,11.74,.68,17.6,.64,11.01-.08,22,.71,33.01,.8,5,.04,10.04,.28,15.06,.45,1.96,.07,3.7,.43,3.35,3.06-.24,.6-.72,.87-1.33,.87-3.89-.03-7.8,.28-11.66-.17-1.7-.2-3.38-.44-5.08-.37-10.15,.39-20.28-.41-30.41-.75-6.72-.23-13.47,.09-20.16-.49-6.64-.58-13.28-.04-19.88-.59-4.93-.41-9.84-.38-14.76-.45-1.91-.03-3.51-.7-4.98-1.82-.77-1.12-.83-2.08,.57-2.74Z"/><path class="cls-9" d="M131.16,62.77c-.87-.8-1.72-2.28-2.61-2.31-15.84-.53-31.69-.77-47.53-1.3-18.09-.61-36.18-1.45-54.27-2.23-.59-.03-1.17-.46-1.75-.71,10.45,.07,20.9,.22,31.35,.14,1.98-.01,3.96-.9,5.94-1.38,1.54,1.33,3.33,.56,5.03,.57,3.2,.48,6.44,.91,9.64,.86,9.98-.15,19.92,.9,29.9,.67,6.94-.16,13.84,.71,20.77,.79,.87,0,1.69-.04,2.52-.25,2.76,.1,5.45,1.06,8.25,.76,.99,0,1.99-.05,2.88,.5,.27,.21,.44,.47,.54,.8,.09,.49,.02,.94-.26,1.36-2.1,1.31-4.38,.7-6.6,.57-1.16-.07-2.27-.24-2.95,1-.25,.2-.53,.25-.83,.15Z"/><path class="cls-9" d="M313.7,56.27c-5.58,.58-11.14,1.48-16.73,1.69-15.9,.58-31.82,.77-47.72,1.32-13.48,.47-26.94,1.36-40.42,1.79-3.43,.11-6.89-.84-10.34-1.3-.34-.36-.35-.76-.11-1.18,.81-.44,1.68-.23,2.52-.2,1.5,.1,2.99-.03,4.47-.34,.62-.15,1.28-.16,1.87-.43,.69-.24,1.36-.54,2.12-.49,.24,.04,.46,.13,.67,.24,.62,.28,1.28,.06,1.92,.15,11.19,.28,22.34-.42,33.49-.91,.95-.04,1.89-.12,2.84-.09,7.96,.27,15.9-.45,23.84-.76,1.56,.18,3.15,.13,4.68,.58,11.3-.17,22.59-.36,33.89-.5,1-.01,2.01,.27,3.02,.42Z"/><path class="cls-13" d="M98.14,65.72c-19.8-.66-39.59-1.32-59.39-1.98,.09-.09,.18-.18,.27-.28,1.04-.58,2.19-.37,3.3-.43,1.02-.06,2.11,.09,2.7-1.06,.21-.38,.48-.69,.92-.81,.47-.08,.91,.02,1.32,.24,1.39,.66,2.83,.96,4.39,1,6.25,.17,12.52-.53,18.75,.52,.76,.13,1.52,0,2.1-.63,.59-.35,1.2-.59,1.88-.21,.62,.66,1.38,.92,2.29,.87,6.9-.34,13.76,.82,20.66,.6,1.14-.04,2.28,0,3.3-.62,.48-.17,.97-.19,1.46-.06,1.51,.93,3.3,1.02,4.91,1.1,5.83,.27,11.67,.17,17.51,.15,.16,0,.32-.19,.47-.31,.61-.37,1.21-.23,1.8,.05,1.04,1.28,3.21,.27,4.03,1.98,.05,.56-.2,.96-.65,1.26-5.15,1.09-10.34,.48-15.52,.36-.68-.11-1.34-.27-2.03-.33-.69-.05-1.37-.23-2.07-.2-3.46-.03-6.93,.26-10.37-.28-.75-.12-1.76,.3-2.02-.92Z"/><path class="cls-19" d="M189.32,26.7c1.36,1.3,2.73,2.61,4.09,3.91,.47,.02,.68,.29,.73,.73-.29,1.46-2.56,1.73-2.15,3.61-.1,.87-.24,1.74,.13,2.59,.08,.26,.14,.52,.18,.79,.08,1.28,.15,2.56,.58,3.78,.05,2.18,.69,4.44-.97,6.36-.39,.3-.9,.57-1.3,.38-3.56-1.68-7.55-2.05-11.1-3.75-.43-.83-.14-1.48,.51-2.03,.33-.18,.69-.29,1.07-.29,3.95,.02,3.92,.02,3.95-3.86,.02-2.82-.05-5.62-.56-8.4-.24-.97-1-1.38-1.84-1.71-1.28-.8-3-.82-3.96-2.2-.39-.82-.42-1.64-.06-2.47,1.12-1.38,2.37-.38,3.57-.17,.53,.09,1.02,.48,1.6,.24-.4-.41-.98-.49-1.44-.79-.24-.15-.46-.31-.67-.49-.39-.42-.67-.91-.82-1.47-.27-1.14,.24-1.96,1.12-2.62-.97,.56-1.88,.84-2.41-.55,2.33,.47,4.66,.94,6.99,1.41,.64,2.46,2.15,4.57,2.79,7.03l-.02-.03Z"/><path class="cls-3" d="M74.11,62.16l-1.15,.52c-2.63,.71-5.25-.03-7.87-.08-4.8-.09-9.6-.22-14.41-.24-1.3,0-2.64-.06-3.82-.76l-1.17-.06c-1.11,.94-2.47,.94-3.76,.78-4.94-.6-9.9-.44-14.85-.62-.48-.16-.99-.22-1.44-.46-.43-.26-.81-.57-1.07-1.01l-.03-.04c-.34,.04-.52-.19-.7-.42l-.45-.55c-.19-.16-.24-.28-.14-.36,.07-.05,.16-.08,.27-.08,6.5,.52,12.99,1.3,19.49,1.5,24.09,.72,48.19,1.24,72.28,1.87,5.29,.14,10.58,.42,15.87,.64,.16,0,.32-.03,.47-.1,1.42-.84,2.7-1.2,3.28,.93-.34,1.5-1.55,1.65-2.66,1.39-1.96-.46-3.96-.2-5.91-.58l-1.07-.54c-1.95,1.11-4.1,.56-6.09,.42-5.1-.35-10.21,.07-15.29-.5-.67-.07-1.32-.1-1.87-.54l-1.18,.03c-.92,.7-2,.55-3.03,.48-6.91-.49-13.85-.36-20.76-.81-1.04-.07-2.11,.04-2.93-.79Z"/><path class="cls-3" d="M209.78,63.82c2.9-.56,5.79-1.53,8.7-1.61,27.21-.73,54.42-1.29,81.63-1.93,3.88-.09,7.8-.08,11.61-.7,1.38-.22,2.5-2.13,3.73-3.27,.32,.11,.64,.22,.96,.33,.91,2.14,.31,3.68-1.7,4.16-.88,.21-1.81,.32-2.73,.16l-1.1,.04c-.75,.67-1.65,.78-2.61,.79-4.76,.03-9.53-.23-14.26,.55-.53,.01-1.06,.02-1.59,0-8.61-.08-17.19,.59-25.79,.86-.52,.13-1.05,.13-1.58,.03-1.71-.78-3.33,.22-5.01,.23-7.16,.06-14.33-.17-21.47,.59-.53,.01-1.05,0-1.58,0-7.58-.39-15.12,.78-22.7,.57-.53,0-1.05,0-1.58-.01-1.05-.02-2.14,.12-2.94-.8Z"/><path class="cls-20" d="M276.79,56.34c-1.2,0-2.4,.01-3.61,.02-.71-.78-.73-1.72-.54-2.67,1.77-8.69,2.99-17.49,5.1-26.11,2.15-2.22,3.17-2.29,4.42-.33-1.79,9.7-3.59,19.4-5.38,29.1Z"/><path class="cls-20" d="M66.08,55.82c-1.27-.28-2.54-.55-3.8-.83-1.62-8.91-3.24-17.81-4.86-26.71-.21-.35-.25-.68,.05-1.01h3.35c.98,.74,1.36,1.78,1.53,2.94,1.13,7.3,2.76,14.52,3.98,21.8,.21,1.27,.78,2.6-.24,3.8Z"/><path class="cls-3" d="M282.17,27.25l-3.53,.05c-2.68,1.28-5.52,.89-8.33,.81-.31-.03-.62-.09-.92-.16-.86-.5-2.22-.27-2.46-1.69,4.57-.41,9.13-.93,13.7-1.22,19.1-1.22,38.2-2.37,57.3-3.54-.41,2.68-2.54,2.1-4.29,2.25l-2.83,.18c-1.9,.31-3.82,.33-5.73,.36l-5.09,.22c-1.68,.88-3.44,.48-5.19,.32-1.51,.08-3.02,.16-4.52,.25-2.28,.6-4.65-.16-6.93,.44-7.06,.58-14.13,1.16-21.19,1.75Z"/><path class="cls-6" d="M75.19,119.17c4.14-.35,8.73,4.91,6.48,8.23-1.11,1.65-5.86,1.75-8.59,1.06-1.73-.44-3.03-3.52-3.87-5.67-.16-.41,2.77-2.01,4.27-3.07,.46-.53,1.03-.71,1.71-.54Z"/><path class="cls-14" d="M179.56,18.29c.56,1.05,1.11,2.1,1.67,3.14-.81,1.13-1.98,.89-3.09,.77-6.95-.73-13.87-.49-20.77,.53-.7,.24-1.46,.15-2.17,.36-.24,.11-.48,.21-.73,.31-.74,.25-1.26,.8-1.76,1.36-.33,.38-.68,.75-1.16,.94-.27,.05-.48-.05-.62-.28,0-.55,0-1.09,0-1.64,.07-.36,.14-.72,.21-1.08-.05-.47,.17-.84,.48-1.17,1.55-.93,3.09-1.85,4.64-2.78,1.4-1.15,3.03-.44,4.55-.55,1.5-.04,3-.08,4.5-.12,.51-.39,.92-.91,1.56-1.13,2.24-.48,4.48-.4,6.73-.06,.83,.15,1.46,.66,2.06,1.21,1.3,.06,2.6,.12,3.91,.17Z"/><path class="cls-18" d="M242.39,119.04c-3.07,1.28-4.81,2.41-6.67,2.66-1.92,.26-3.95-.32-5.93-.57-.47-.06-1.33-.25-1.32-.35,.08-2.13,.25-4.27,.45-6.39,.02-.23,.3-.59,.51-.63,.86-.17,1.92-.6,2.59-.28,2.99,1.45,5.87,3.12,10.38,5.57Z"/><path class="cls-9" d="M157.38,119.69c-.23-1.92-.9-3.94-.49-5.72,.21-.9,2.36-1.35,3.63-2.01,.47,1.48,.98,2.94,1.39,4.44,.6,2.22,1.13,4.46,1.69,6.69-2.07-1.13-4.15-2.27-6.22-3.4Z"/><path class="cls-8" d="M168,3.26c.08-.55,.15-1.09,.23-1.64,2.04-.52,1.64,1.13,1.93,2.16,.12,.44-.03,1.24,.35,1.25,.4,.02,.31-.79,.5-1.21,.22-.49,.3-1.15,1.11-.96h.02c1.49,2.26,1.65,4.75,1.29,7.34h-.17c-.46,.88,.23,1.83-.18,2.76-.63,1.41-1.24,2.99-3.1,2.74-1.76-.24-2.68-1.53-2.9-3.34-.09-.74,.46-1.45,0-2.17,.01-.76,.03-1.53,.04-2.29-.05-.46,.18-.84,.36-1.24,.07-.72,.14-1.44,.2-2.17,.31-.35,.26-.8,.33-1.21Z"/><path class="cls-18" d="M207.59,114.16c1.44,2.46,2.89,3.83,2.65,4.76-.49,1.9-1.89,3.58-2.91,5.34-1.24-1.38-3.46-2.76-3.47-4.14,0-1.62,1.92-3.25,3.73-5.96Z"/><path class="cls-18" d="M118.02,126.07c-1.62-3-2.61-4.6-3.24-6.34-.07-.18,1.88-1.3,3-1.67,1.14-.37,2.4-.42,3.61-.48,.46-.03,.95,.29,1.42,.45-.37,.35-.83,.64-1.08,1.07-.66,1.12-1.24,2.3-1.85,3.45-.37,.69-.73,1.39-1.87,3.52Z"/><path class="cls-6" d="M143.11,123.11c.16-1.78,.32-3.56,.48-5.35,1.55,.65,3.1,1.3,4.65,1.96-.19,.95-.39,1.9-.58,2.85-.63,.69-1.41,.79-2.26,.53h-2.29Z"/><path class="cls-3" d="M167.06,10.18c.18,.31,.36,.62,.54,.94,.78,1.36,1.56,2.72,2.34,4.07,1.1-1.67,2.2-3.33,3.3-5l.21,1.06c.54,.73,.49,1.54,.32,2.37l.12,1.13c.72,.97,.96,1.91-.14,2.79l-7.21,.04c-.6-.93-.36-1.89-.11-2.85,.06-.93,.12-1.86,.19-2.79-.12-.48,.08-.88,.28-1.29,.05-.16,.1-.31,.16-.46Z"/><path class="cls-18" d="M303.44,110.58c0,.57,.05,1.14,0,1.7-.13,1.61-.29,3.21-.44,4.81-1.4-.98-2.79-1.96-4.19-2.95,.04-1.33-1.35-2.83,.47-3.94,1.41-.18,2.83-.43,4.15,.39h0Z"/><path class="cls-9" d="M172.11,2.86c-.58,1.55-1.16,3.1-1.74,4.65-.36-1.6-.67-3.22-1.11-4.79-.12-.43-.68-.74-1.03-1.1,.61-.54,1.22-1.08,1.83-1.62,.69,.95,1.37,1.91,2.06,2.86Z"/><path class="cls-9" d="M321.73,106.07c.77,1.13,1.55,2.25,2.32,3.38-.3,.71-.61,1.41-.91,2.12-.68-.47-1.88-.9-1.92-1.42-.1-1.34,.31-2.72,.51-4.08Z"/><path class="cls-19" d="M184.14,121.82c-.18,1.81-.36,3.61-.54,5.42-.93-1.02-1.86-2.03-2.79-3.05,1.11-.79,2.22-1.58,3.33-2.36Z"/><path class="cls-9" d="M147.63,124.88c-.2,1.63-.41,3.26-.61,4.89-.62-.33-1.73-.6-1.78-1.01-.16-1.27,.07-2.6,.15-3.9,.75-.61,1.5-.63,2.24,.03Z"/><path class="cls-9" d="M299.42,110.58c-.2,1.19-.4,2.37-.6,3.56-.55-.23-1.1-.47-1.66-.7-.69-.85-1.39-1.7-2.08-2.56,1.29-.71,2.57-1.41,3.86-2.12,1.12,.35,1,1.02,.48,1.81Z"/><path class="cls-9" d="M196.79,119.79c-.77-.62-2.24-1.36-2.16-1.82,.17-.94,1.18-1.73,1.84-2.58,.67,.88,1.34,1.76,2,2.64-.56,.59-1.13,1.18-1.69,1.77Z"/><path class="cls-9" d="M317.02,110.1c1.12,.71,2.25,1.41,3.37,2.12-1.04,.32-2.09,.64-3.13,.97-.2-.9-.41-1.81-.61-2.71-.05-.3,.08-.41,.37-.37Z"/><path class="cls-18" d="M75.19,119.17c-.57,.18-1.14,.36-1.71,.54-.62-1.21-1.26-2.4-1.78-3.65-.02-.06,.99-.55,1.52-.84,.66,1.32,1.31,2.63,1.97,3.95Z"/><path class="cls-9" d="M333.66,23.74c1.43-.75,2.85-1.5,4.28-2.25,.09-1.29,.17-2.57,.25-3.86,.32,1.4,1.29,3.73,.84,4.04-1.53,1.07-3.55,1.43-5.38,2.07Z"/><path class="cls-14" d="M189.34,26.73c-.93-2.34-1.86-4.68-2.79-7.03,.31,.1,.62,.2,.93,.29,.52,.16,.37,.73,.63,1.05,.41,1.31,.81,2.63,1.22,3.94,0,.58,0,1.16,.01,1.74Z"/><path class="cls-9" d="M173.42,10.2c-.43-2.45-.86-4.89-1.29-7.34,.43,2.45,.86,4.89,1.29,7.34Z"/><path class="cls-6" d="M323.35,113.13c.62,1.4,1.16,2.07,1.13,2.7-.03,.54-.72,1.04-1.12,1.55-.54-.53-1.43-1.02-1.51-1.61-.08-.58,.68-1.27,1.51-2.64Z"/><path class="cls-6" d="M194.46,122.56c.75-.38,1.51-.75,2.26-1.13,.33,.76,.83,1.5,.9,2.29,.02,.24-1.39,.99-1.71,.8-.64-.39-.98-1.27-1.45-1.95Z"/><path class="cls-6" d="M317.02,110.1c-.17,.08-.3,.2-.37,.37-.77-1.1-1.54-2.19-2.32-3.28,.73,0,1.46,0,2.19,0,.16,.97,.33,1.95,.5,2.92Z"/><path class="cls-10" d="M282.71,113.51c-.69,.66-1.28,1.46-1.49,1.37-.77-.32-1.42-.95-2.12-1.46,.48-.5,1.01-1.45,1.44-1.4,.67,.07,1.26,.82,2.17,1.49Z"/><path class="cls-7" d="M31.06,63.36l-2.38-.63c.8-.09,1.59-.26,2.39-.25,2.53,.04,5.06,.15,7.6,.23,.35,.34,.35,.68,.03,1.04l.05-.02c-.59-.03-1.19-.06-1.78-.09-1.96-.38-3.95,.12-5.91-.28Z"/><path class="cls-9" d="M23.52,58.77c0,.16-.05,.3-.13,.44-.75-.35-1.5-.71-2.25-1.06,.9-.69,1.8-1.38,2.7-2.07-.11,.9-.22,1.8-.33,2.7Z"/><path class="cls-9" d="M160.81,18.22c-1.52,.18-3.03,.37-4.55,.55,1.52-.18,3.03-.37,4.55-.55Z"/><path class="cls-9" d="M314.81,24.81c1.73-.11,3.46-.21,5.19-.32-1.73,.11-3.46,.21-5.19,.32Z"/><path class="cls-9" d="M173.76,17.54c.05-.93,.09-1.86,.14-2.79,.59,1.12,1.18,2.25,1.76,3.37-.63-.19-1.27-.39-1.9-.58Z"/><path class="cls-18" d="M147.63,124.88c-.75,0-1.5-.02-2.24-.03,0-.59,0-1.17,0-1.76,.75-.18,1.51-.35,2.26-.53,0,.77-.02,1.54-.03,2.32Z"/><path class="cls-9" d="M325.09,24.27c1.91-.12,3.82-.24,5.73-.36-1.91,.12-3.82,.24-5.73,.36Z"/><path class="cls-9" d="M303.36,25.5c2.31-.15,4.62-.29,6.93-.44-2.31,.15-4.62,.29-6.93,.44Z"/><path class="cls-20" d="M31.06,63.36c1.97,.09,3.94,.19,5.91,.28-1.87,.03-3.74,.07-5.62,.1-.09-.13-.19-.26-.29-.38Z"/><path class="cls-18" d="M169.91,124.85c.67,.55,1.35,1.11,2.02,1.66l-.36,.36c-.55-.67-1.1-1.35-1.66-2.02h0Z"/><path class="cls-9" d="M173.78,13.61c-.11-.79-.22-1.58-.32-2.37,.11,.79,.22,1.58,.32,2.37Z"/><path class="cls-9" d="M166.43,14.72c.04,.95,.07,1.9,.11,2.85-.41,.17-.82,.35-1.23,.52,.38-1.13,.75-2.25,1.13-3.38Z"/><path class="cls-18" d="M174.43,127.93c-.26,.31-.49,.66-.55,.63-.3-.15-.6-.35-.82-.61-.04-.05,.28-.56,.34-.55,.32,.1,.61,.29,1.03,.52Z"/><path class="cls-9" d="M167.46,6.64c-.12,.41-.24,.83-.36,1.24,.12-.41,.24-.83,.36-1.24Z"/><path class="cls-19" d="M151.62,21.55c-.16,.39-.32,.78-.48,1.17,.16-.39,.32-.78,.48-1.17Z"/><path class="cls-9" d="M166.9,10.64c-.09,.43-.19,.86-.28,1.29,.09-.43,.19-.86,.28-1.29Z"/><path class="cls-9" d="M168,3.26c-.11,.4-.22,.81-.33,1.21,.11-.4,.22-.81,.33-1.21Z"/><path class="cls-9" d="M293.15,110.02c.25,.09,.49,.19,.74,.28-.24,.1-.49,.2-.73,.3,0-.19,0-.39,0-.58Z"/><path class="cls-16" d="M57.47,27.27l-.05,1.01c-.12-.34-.23-.68-.35-1.03,.13,0,.26,.01,.4,.02Z"/><path class="cls-19" d="M1.2,21.13c0,.14-.03,.28-.11,.4-.26-.35-.52-.69-.78-1.04l.26-.08c.48,0,.74,.2,.63,.73Z"/><path class="cls-19" d="M188.11,21.04c-.21-.35-.42-.7-.63-1.05,.21,.35,.42,.7,.63,1.05Z"/><path class="cls-19" d="M1.6,22.13l.58,.58-.58-.58Z"/><path class="cls-19" d="M1.08,21.53l.52,.61-.52-.61Z"/><path class="cls-9" d="M23.84,59.76c.23,.14,.47,.28,.7,.42-.23-.14-.47-.28-.7-.42Z"/><path class="cls-9" d="M295.03,70.3c7.06,1.4,13.41,2.74,14.34,11.17,.14,1.23,2.13,3.36,2.99,3.23,6.92-1.02,7.91,5.63,11.61,8.67,.38,.31,.08,2.19-.49,2.78-1.29,1.35-3.09,2.19-4.41,3.51-3.16,3.15-5.49,3.29-7.7-1.12-.52-1.04-3.01-.95-4.4-1.73-1.67-.95-3.13-2.29-4.68-3.46,1.18-.54,2.4-1,3.51-1.65,.79-.46,2.15-1.45,2.04-1.73-1.14-2.87-2.48-5.66-3.9-8.41-.11-.22-1.16,0-1.77,.1-1.57,.23-3.15,.66-4.71,.61-.27,0-.27-2.1-.74-3.05-.79-1.61-2.04-3-2.75-4.63-.42-.98-.35-2.26-.17-3.36,.07-.46,1-.77,1.21-.92Z"/><path class="cls-9" d="M196.26,95.69c.04,2.05-.12,4.14,.19,6.15,.17,1.11,1.12,2.1,1.72,3.14-1,.15-2.18,.7-2.95,.35-1.15-.52-2.88-1.68-2.87-2.56,.06-5.58-2.95-4.27-6.03-2.92-.11,.05,.12,1.06,.31,1.57,.6,1.58,1.25,3.14,1.88,4.71-1.36-.38-3.46-.33-3.95-1.2-2.78-4.96-6.68-1.85-10.08-1.62-2.13,.15-2.4,1.66-1.68,3.2,.53,1.15,0,2.82-.16,4.25-.09,.86-.26,1.74-.6,2.53-.47,1.13-1.01,2.29-1.79,3.21-.2,.24-1.82-.17-2.07-.66-.5-.95-.94-2.31-.62-3.24,1.96-5.87-.54-9.47-6.75-9.43-.5-.89-.19-1.66,.35-2.39,.22-.17,.46-.31,.72-.4,1.09-.15,1.32-1.28,2.07-1.83,2.09-1.55,3.79-1.32,5.3,.81,1.97,2.79,7.18,2.48,8.82-.52,.36-.67,.58-1.41,.99-2.05,1.1-1.76,3.54-2.68,5.17-2.06,.56,.22,.72,.89,1.32,1-.35-1.13,.16-2.28-.08-3.39-.14-.67-.76-.78-1.35-.79-1.38-.03-2.37,.63-2.97,1.84-.74,1.49-1.83,2.3-3.42,1.4-1.63-.93-2.44-2.39-1.8-4.33q1.73-5.23-4.01-5.32c-1.53-.03-3.27,.54-4.48-1.04,.02-.33,.17-.57,.45-.75,5.24-.74,10.5-.65,15.76-.32,1.26,.08,2.24,.93,3.2,1.69,.24,.18,.47,.39,.69,.59,.23,.18,.43,.39,.62,.61,.09,.11,.17,.22,.25,.33,.15,.22,.29,.45,.41,.69,.58,1.33,1.72,2.08,2.9,2.79,.31,.23,.58,.51,.8,.83,.79,1.85,2.75,2.69,3.77,4.34,.08,.26,.06,.52-.06,.76Z"/><path class="cls-9" d="M281.18,92.9c.86-.2,1.71-.41,2.57-.61-1.59-1.27-3.1-3.5-4.78-3.63-4.1-.32-5.29-2.78-6.38-6-.28-.82-1.95-1.08-2.8-1.8-.86-.72-1.89-1.6-2.14-2.59-.34-1.32,0-2.8,.05-4.22,.9,.46,1.77,1.15,2.71,1.29,.73,.11,1.54-.61,2.34-.74,.84-.14,1.9-.29,2.53,.1,.48,.3,.42,1.44,.65,2.2,.83,2.74-1.9,7.73,4.96,6.65,1.91-.3,5.26,2.49,6.38,4.67,1.65,3.21,2.06,6.68,7.06,5.61,2.73-.58,8.6,7.82,7.22,10.15-.18,.31-1.91,.03-2.68-.41-1.75-1-1.54-6.67-5.65-2.15-.61,.67-2.65,.05-4.03,.02h.01c-1.94-1.51-1.87-7.3-6.56-3.1-.23,.21-1.17,.1-1.25-.09-.3-.72-.51-1.52-.52-2.3,0-1.02,.22-2.05,.34-3.08h-.01Z"/><path class="cls-19" d="M161.35,100.87c-.18,.77-.36,1.54-.53,2.31l-.18,.03h-.19c-1.08,.15-2.02-.32-2.99-.65-.25-.08-.5-.25-.78-.05,.2,.21,.46,.31,.7,.45,.77,.48,1.85,.5,2.3,1.48-.83,1.05-2.15,3.11-2.41,2.98-1.78-.87-4.63-2.08-4.75-3.39-.48-5.46-4.46-6.76-8.4-8.36-1.56-.33-2.51,2.07-4.25,.96-.53-.42-.38-.82,.05-1.2,.15-.16,.39-.22,.49-.45-.27,.1-.36,.48-.71,.47-1.93-.58-1.45-2.02-1.22-3.38,.16-.6,.18-1.21,.18-1.82,.03-.39,.16-.74,.4-1.04,.66-.54,.62-1.32,.73-2.07,.26-1.7,1.21-1.71,2.42-.87,.45,.41,.79,.9,1.06,1.42,.28-.61,.47-1.3,1.25-1.46,1.52-.08,2.39,.65,2.64,2.13,.35,1.28-1.57,2.32-.76,3.23,.49,.55,1.8-1.24,3.06-.66,1.41,1.09,2.82,.94,4.2-.03,1.16-.81,2.41-1.06,3.79-.78,.26,.09,.48,.23,.68,.41,.88,1.86-.55,3.36-.81,5.04-.16,1.03-.99,2.13,.42,2.94,1.14,.88,2.77,1.02,3.62,2.36Z"/><path class="cls-14" d="M191.8,48.38c.08-2.27,.17-4.55,.25-6.82,.12-.1,.23-.2,.34-.3,.63-.23,1.2-.18,1.67,.34,.44,2.16,1.46,4.05,2.48,6,1.79,3.42,3.4,6.99,2.01,11.04-.03,.38-.05,.75-.07,1.13,.18,1,.35,2.01,.53,3.01,.4,.67,.23,1.48,.5,2.18,.05,.25,.06,.51,.05,.77-.04,.4-.28,.71-.48,1.04l-.14,.55c-.58,1.03-1.62,1.51-2.61,1.19-2.37-.77-4.95-.69-7.21-1.86-1.18-2.33-.66-4.82-.73-7.26,.34-1.52-.82-2.82-.61-4.32,.95-1.84,2.71-2.88,4.24-4.12,1.36-1.1,.87-1.81-.23-2.58Z"/><path class="cls-9" d="M212.13,74.04c1.87-.66,3.72-1.79,5.6-1.85,1.74-.06,3.57,.92,5.26,1.67,.69,.31,1.12,1.21,1.67,1.84-.71,.41-1.41,.84-2.14,1.22-1.64,.87-3.3,1.72-4.95,2.57,1.4,.47,2.82,.91,4.21,1.4,.9,.32,1.77,.7,2.66,1.06-.95,.61-1.88,1.25-2.86,1.81-.78,.45-1.6,.8-2.41,1.2,.6,.44,1.48,.75,1.73,1.34,.63,1.45,1.19,3,1.3,4.55,.03,.43-2.11,1.6-2.42,1.36-1.21-.95-2.46-2.18-3.01-3.57-1.2-3.05-1.98-6.27-2.94-9.42-.66-1.7-.28-3.74-1.72-5.17Z"/><path class="cls-9" d="M257.79,110.09c-1.88-1.9-5.51-3.43-1.38-6.58-.61-.69-1.25-1.35-1.84-2.06-.45-.55-1.29-1.34-1.15-1.68,.27-.63,1.35-1.57,1.71-1.42,5.83,2.32,11.62,4.76,17.36,7.29,.71,.31,1.13,1.3,1.69,1.98-.84-.02-1.72-.22-2.51-.03-3.14,.73-6.25,1.59-9.37,2.4-1.48,1.33-2.99,1.17-4.53,.12Z"/><path class="cls-9" d="M240.78,89.82c-.76-.52-1.98-.92-2.16-1.6-.2-.74,.62-1.72,.87-2.63,.56-2.09,1.08-4.19,1.53-6.3,.23-1.06,.26-2.15,.38-3.23,.9,.57,2.3,.95,2.61,1.76,1.82,4.68,3.54,9.43,4.96,14.25,.42,1.41-.23,3.13-.39,4.71-1.49-1.57-3.05-3.08-4.45-4.73-.82-.97-1.39-2.16-2.07-3.25l-1.28,1.05Z"/><path class="cls-9" d="M139.09,121.98c-7.1,.8-2.65-6-5.39-8.29-1.69-1.41-2.53-3.84-3.75-5.81,1.84-1.61,4.25-.97,6.34-1.6,2.53,.75,5.05,1.5,7.58,2.25-.51,1.18-1.04,3.37-1.54,3.37-4.05-.06-4.27,1.97-3.16,4.99,.28,.34,.29,.68,.04,1.04-.04,1.35-.08,2.69-.12,4.04Z"/><path class="cls-9" d="M343.13,98.32c-2.58-3-3.51-4.35-4.7-5.41-1.91-1.7-4.2-3.01-5.91-4.87-.65-.71-.15-2.47-.17-3.75,1.89,.04,4.56-.68,5.51,.28,2.34,2.39,4.04,5.48,5.68,8.46,.47,.86-.13,2.3-.4,5.29Z"/><path class="cls-9" d="M258.27,97.98c-2.34-3.57-4.39-6.4-6.11-9.42-.97-1.7-1.35-3.72-2.11-5.55-.32-.78-1.45-1.69-1.26-2.14,.48-1.14,1.41-2.16,2.37-2.98,.19-.16,1.76,.7,2.01,1.35,2.12,5.56,4.09,11.18,6.06,16.8,.07,.21-.26,.56-.96,1.94Z"/><path class="cls-2" d="M196.26,95.69c0-.17-.07-.31-.18-.43-.16-.56,.17-.8,.62-.96,1.81,.5,3.8,.55,5.17,2.12,.7-.95,1.55-1.83,2.05-2.87,.61-1.29,.93-2.72,1.37-4.09,1.85,1.83,4.17,.79,6.29,1.01,.06,1.96,.11,3.92,.17,5.88-.48,.24-.29,.47,.01,.69l.06,1.89c-.05,.27-.17,.51-.36,.71-.35,.25-.72,.36-1.14,.18-.2-.19-.35-.41-.46-.65-.32-1.02-.67-1.97-2.02-1.96-1.57,0-1.7,1.21-1.98,2.29-.62,1.23-.6,2.77-1.76,3.74-2.61-2.51-5.22-5.03-7.82-7.54Z"/><path class="cls-2" d="M139.69,96.34c1.47-.22,2.95-.44,4.42-.66-2.06,1.31-4.13,2.62-6.19,3.93-1.32-.65-3.3-.18-3.67-2.46-.12-.74-3.61-.04-4.01,.89-.33,.75-.19,1.75-1.29,2.01-.53,0-.92-.22-1.17-.69-.55-2.96-1.4-5.94,.85-8.62,2.41-.78,4.82-.8,7.25-.08,.73,.38,1.12,1.07,1.11,1.82-.01,1.97,1.25,2.97,2.7,3.86Z"/><path class="cls-13" d="M197.74,84.37c-.1,.98-.21,1.96-.31,2.94-.39,.23-.78,.24-1.18,.04-.49-.35-.73-.87-.81-1.43-.24-1.73-1.32-2.03-2.84-1.86-1.45,.16-2.94,.89-4.37-.09-.6-2.06-2.16-2.68-4.11-2.79-1.39-.08-2.88,.28-4.09-.78-.38-.8-.07-1.44,.46-2.04,1.11-.85,2.2-1.75,3.76-1.28,4.17,2.85,8.41,2.13,12.67,.25,.71-.19,1.43-.43,2.14,.02,.77,2.57-1.21,4.62-1.32,7.03Z"/><path class="cls-9" d="M226.96,97.47c-.69-.07-.98-.01-1.04-.11-.71-1.11-2.02-2.29-1.94-3.36,.26-3.36-1.8-7.94,3.89-9,.2,1.6,.41,3.21,.58,4.81,.12,1.12,.08,2.27,.29,3.37,.18,.94,1.14,2.22,.82,2.66-.64,.87-1.93,1.25-2.59,1.64Z"/><path class="cls-5" d="M128.43,99.8c.31-.03,.62-.06,.93-.09,1.68-1.24,3.49-1.03,5.34-.51,.3,.14,.54,.35,.73,.61,.7,1.53-.38,3.41,.91,4.84,.21,.39,.48,.78,.06,1.2-.14,.12-.17,.27-.1,.45-2.11,.53-4.23,1.06-6.34,1.6-.59-1.75-1.18-3.51-1.76-5.26-.52-.99-.86-1.97,.23-2.83Z"/><path class="cls-5" d="M204.09,103.24l1.33-4.02c1.81-1.17,3.46-.47,5.1,.42h.01c1.27,1.34,.27,3.3,1.25,4.73,.11,.61,.08,1.21-.03,1.82-2.09,.5-4.18,1.28-6.28,1.29-.46,0-.92-2.76-1.39-4.24Z"/><path class="cls-11" d="M198.9,77.53l-1.49,.49c-1.97-1.4-4.41-1.88-6.36-3.32-.33-.18-.66-.37-1-.54-.69-.34-1.44-.55-2.15-.84-2.35-.98-4.44-2.51-6.88-3.33-.68-.36-1.16-.89-1.36-1.64-.12-.61-.04-1.19,.31-1.71,.34-.31,.74-.42,1.19-.38,4.56,2.63,9.03,5.47,14.02,7.29,.35,.13,.69,.31,1.04,.45,3.89,1.61,3.95,1.58,5.53-2.28,.25-.66,.61-1.23,1.25-1.58,.59,.25,1.17,.5,1.76,.75,1.7,3.05-.73,5.07-1.87,7.4-1.48,.57-2.77,.11-3.97-.77Z"/><path class="cls-16" d="M203.06,77.79c.56-2.3,1.12-4.6,1.69-6.89,2.2,1.02,4.4,2.04,6.6,3.07,.55,1.87,.08,3.42-1.47,4.63l-1.18,.54c-1.88,.77-3.65,.71-5.25-.7,.02-.18-.07-.26-.24-.26-.17-.05-.37,.12-.52-.05l.38-.32Z"/><path class="cls-9" d="M232.54,97.39c2.33,2.6,4.36,4.81,6.28,7.1,.13,.15-.67,1.43-.8,1.39-1.27-.39-2.47-.99-3.72-1.45-1.45-.53-2.93-.98-4.4-1.45-.42-.14-1.18-.14-1.23-.35-.2-.76-.51-1.88-.14-2.31,.81-.93,2.01-1.52,4.01-2.93Z"/><path class="cls-9" d="M200.23,115.34c-2.03-2.35-3.59-4.14-5.15-5.93,.89-.71,1.78-1.43,2.67-2.14,1.36,1.78,2.82,3.5,3.98,5.41,.22,.36-.79,1.46-1.5,2.67Z"/><path class="cls-9" d="M270.39,97.34c-2.76,1.55-3.68,2.23-3.79,2.11-1.8-1.88-3.5-3.85-5.23-5.8,.53-.44,1.36-1.38,1.56-1.26,2.23,1.35,4.37,2.86,7.46,4.95Z"/><path class="cls-16" d="M202.99,70.14c-.21,.56-.42,1.12-.62,1.68-1.38,1.69-2.59,1.6-4.25,.11-1.96-1.76-4.19-3.3-7.03-3.46-.88-.05-1.65-.47-1.88-1.47,.05-.13,.11-.26,.16-.39,3.19,.24,6.39,.48,9.58,.72,1.35,.94,2.69,1.88,4.04,2.82Z"/><path class="cls-6" d="M203.06,77.79c.11,.1,.16,.23,.15,.38-1.82,2.07-3.64,4.14-5.47,6.2,.39-2.28,.77-4.56,1.16-6.84,1.39,.09,2.77,.17,4.16,.26Z"/><path class="cls-9" d="M281.19,92.89l-6.79,.88,.93-3.55c1.95,.89,3.9,1.79,5.85,2.68h.01Z"/><path class="cls-12" d="M135.14,99.74c-1.93,0-3.85-.02-5.78-.02,.34-1.16,.67-2.33,1.01-3.49,1.23,1.69,4.56-3.37,4.94,1.56,.05,.67,1.7,1.22,2.62,1.82h-1.13c-.55,.12-1.09,.25-1.66,.13Z"/><path class="cls-9" d="M338.41,98.27c-1.82,1.53-2.73,2.51-3.84,3.07-.28,.14-1.81-1.13-1.77-1.68,.1-1.45,.74-2.86,1.17-4.29,1.19,.78,2.39,1.56,4.45,2.9Z"/><path class="cls-9" d="M188.15,112.35c-.61,1.17-1,1.91-1.38,2.65-1.05-1.33-2.33-2.56-3.01-4.06-.21-.47,1.21-1.68,1.88-2.55,.83,1.31,1.65,2.62,2.51,3.96Z"/><path class="cls-9" d="M289.17,101.45c.64,1.41,1.29,2.83,1.93,4.24-1.79-.58-3.58-1.15-5.37-1.73,1.15-.83,2.31-1.67,3.46-2.5h-.01Z"/><path class="cls-19" d="M209.88,78.58c.49-1.54,.98-3.08,1.47-4.63,.26,.03,.53,.05,.79,.08,.57,1.72,1.15,3.45,1.72,5.17-1.33-.21-2.65-.42-3.98-.63Z"/><path class="cls-9" d="M293.36,77.84c-1.23,.65-2.15,1.35-2.34,1.19-1.26-1.06-2.37-2.3-3.53-3.48,.49-.46,1.32-1.4,1.43-1.32,1.38,.99,2.66,2.11,4.44,3.61Z"/><path class="cls-12" d="M211.57,90.47c-2.1-.34-4.19-.68-6.29-1.01,2.1,.34,4.19,.68,6.29,1.01Z"/><path class="cls-16" d="M159.68,104.45c-1.61-.68-3.22-1.35-4.8-2.08-.03-.01,.27-.74,.42-1.13,1.71,.66,3.43,1.32,5.14,1.98-.26,.41-.51,.82-.77,1.24Z"/><path class="cls-9" d="M328.93,83.46c-1.11,.3-2.05,.8-2.93,.7-.65-.08-1.21-.93-1.82-1.44,.75-.75,1.49-1.5,2.24-2.25,.41,.49,.83,.99,2.5,2.99Z"/><path class="cls-6" d="M197.83,88.4c6.27-1.25-.24,3.25,1.76,3.92-.1,.09-.2,.17-.31,.26-.26,.08-.52,.11-.79,.07-.84-.22-1.45-.68-1.72-1.54-.18-1.11-.2-2.16,1.05-2.71Z"/><path class="cls-16" d="M211.6,65.47c.15-.11,.31-.12,.47-.02,3.06-.35,6.13-.16,9.19-.21,1.51,.17,3.16-.43,4.5,.78-3.01,.19-6.03,.39-9.04,.58l-5.21-.14c-.26-.36-.25-.69,.1-.99Z"/><path class="cls-6" d="M201.86,96.42c-1.66-.65-3.32-1.3-4.97-1.95-.1-.07-.2-.15-.31-.22,.07-.25,.24-.42,.48-.51,.57-.14,1.14,.18,1.7-.03,.4-.39,.37-1.04,.83-1.39h0c.76,1.36,1.51,2.73,2.27,4.09Z"/><path class="cls-16" d="M201.83,65.68c2.21-.06,4.41-.12,6.62-.19-1.81,.39-3.62,.77-5.43,1.16-.27-.48-1.28-.05-1.19-.97Z"/><path class="cls-12" d="M136.16,104.89l-.9-4.74c.35-.18,.67-.12,.95,.16,.05,1.15,.11,2.31,.16,3.46,.17,.42,.25,.82-.21,1.12Z"/><path class="cls-2" d="M211.75,106.19l-.27-1.85c-.83-1.68-.75-3.36,0-5.05,.11-.12,.23-.24,.35-.36-.02,2.42-.04,4.84-.06,7.26Z"/><path class="cls-12" d="M197.83,88.4c-.19,.92-.38,1.83-.58,2.75-.34,.19-.62,.12-.85-.19-.63-1.29-.75-2.55,.2-3.75,.27,.03,.55,.07,.82,.1,.13,.36,.27,.73,.4,1.09Z"/><path class="cls-7" d="M201.83,65.68c.4,.32,.79,.65,1.19,.97-1.31,.04-2.63,.08-3.94,.12,.02-.33,.04-.65,.06-.98,.9-.04,1.8-.07,2.7-.11Z"/><path class="cls-2" d="M136.21,100.31c-.32-.05-.63-.1-.95-.16-.03-.14-.07-.28-.12-.41,.55-.05,1.11-.09,1.66-.14-.2,.24-.39,.47-.59,.71Z"/><path class="cls-7" d="M211.6,65.47l-.1,.99c-.52,.02-1.04,.03-1.57,.05-.43-.31-.4-.64-.06-.99,.58-.02,1.15-.03,1.73-.05Z"/><path class="cls-1" d="M139.21,117.94c-.01-.35-.03-.69-.04-1.04,.45,.17,.9,.34,1.35,.51l-1.31,.53Z"/><path class="cls-1" d="M187.6,120.86c-.28-.18-.57-.36-.85-.54l.33-.33c.18,.28,.36,.57,.53,.85l-.02,.02Z"/><path class="cls-9" d="M136.16,104.89c.07-.37,.14-.75,.21-1.12,0,.69,.02,1.39,.03,2.08-.08-.32-.16-.64-.24-.96Z"/><path class="cls-16" d="M209.87,65.52c.02,.33,.04,.66,.06,.99-.31-.34-.62-.68-.93-1.02,.29,.01,.58,.02,.88,.03Z"/><path class="cls-12" d="M211.75,97.04c0-.23,0-.46-.01-.69v.69Z"/><polygon class="cls-1" points="253.8 73.5 254.01 73.62 253.92 73.71 253.8 73.5"/><path class="cls-9" d="M128.43,99.8c-.08,.94-.16,1.88-.23,2.83-.56-1-.92-2.2-1.7-2.98-3.41-3.36-6.93-6.6-10.48-9.82-.06-.05-1.1,.69-1.37,1.22-.54,1.06-.86,2.23-1.27,3.35-1.12-1.26-2.24-2.52-3.36-3.78,.87-1.49-.11-2.71-.58-4l-.55-1.69c.68-.64,.52-1.61,.93-2.36,.91-1.67,0-2.45-1.46-2.96-.27-.09-.56-.12-.83-.21-1.49-.47-3.01-1.03-3.13-2.87-.1-1.56,.78-2.76,2.19-3.37,1.67-.73,3.34-.68,4.78,.64,.5,.46,.81,1.04,1.17,1.6,1.47,2.31,2.98,3,5.51,2.1,2.52-.89,4.62-.46,6.61,1.2,1.62,1.34,3.88,1.56,5.44,3.03,1.13,2.05,.74,3.97-.55,5.79-.51,.72-1.51,1.32-.52,2.37,.09,.26,.11,.53,.07,.8-.13,.25-.34,.4-.62,.44-.02,2.88-.03,5.77-.05,8.65Z"/><path class="cls-9" d="M94.71,99.92c-1.49,.92-2.99,1.82-4.47,2.76-.78,.49-1.8,1.63-2.23,1.43-.99-.46-2.31-1.5-2.4-2.4-.32-3.44-.79-7.07,.04-10.31,.34-1.32,3.8-2.14,5.96-2.52,.77-.14,1.89,1.69,2.84,2.62,.59,.57,1.17,1.15,1.75,1.73,.25-.64,.38-1.39,.79-1.91,.54-.68,1.51-1.78,1.94-1.64,1.28,.43,2.65,1.17,3.45,2.21,.52,.69,.56,2.46,.03,3.1-1.63,1.99-3.62,3.71-5.53,5.46-.36,.33-1.03,.33-1.56,.48l-.61-1.01Z"/><path class="cls-6" d="M129.96,82.08c-4.6-1.08-8.14-6.2-13.91-3.43-.78,.37-2.76-1.95-4.28-2.88-1.38-.85-2.84-1.9-4.35-2.06-.73-.08-1.66,1.67-2.5,2.59,1.2,.83,2.38,1.69,3.6,2.49,.96,.63,2.88,1.56,2.81,1.73-.62,1.55-1.58,2.96-2.44,4.41-.26-1.43-.53-2.85-.79-4.28-.91,.72-1.76,1.56-2.75,2.12-.43,.25-1.56,.14-1.71-.15-.42-.82-.82-1.87-.67-2.73,.51-2.91,1.25-5.78,1.91-8.67,1.14,0,2.28,0,3.42,0,2.56-1.03,3.39,1.28,4.79,2.49,1.37,2.02,3.12,2.66,5.37,1.48,1.25-.32,2.49-.35,3.73,.04,1.33,.72,2.42,1.85,3.87,2.36,.95,.33,1.93,1.61,2.97,.23,1-1.32,.87-4.09-.15-4.97-.65-.56-1.48-.84-2.18-1.32-.88-2.69-.24-3.23,3.66-3.11,1.96,.44,1.25,2.95,2.85,3.65,1.88,.22,3.89-.88,5.65,.72,.6,.55,.65-.35,.78-.69,.44-1.15,.25-2.42,.57-3.59,.25-.92,.58-2,1.75-.64,.74,2.59,.27,5.23,.39,7.85-.06,.88-.23,1.77,.21,2.62,.29,.83,.61,1.65,.72,2.53,.05,.44,.06,.88,.07,1.33,0,.75-.09,1.47-.49,2.12-.18,.23-.42,.38-.71,.43-2.36-.33-3.4-1.86-3.6-4.09-.1-1.07-.29-2.05-1.18-2.79-2.07-1.73-3.71-1.19-4.39,1.49-.09,.37-.21,.73-.42,1.05-.78,.68-1.65,1.23-2.57,1.69Z"/><path class="cls-9" d="M86.26,115.16c-3.64-.01-7.39,.76-8.24-4.86-.17-1.12-4.97-1.69-7.69-2.19-1.53-.28-3.29,.43-4.72-.02-.57-.18-1.1-3.05-.68-3.35,1.2-.86,2.89-1.05,4.39-1.47,.16-.04,.39,.16,.54,.11,6.44-1.87,10.83,.37,14.05,6.23,.74,1.34,3.78,1.28,5.56,2.23,1.05,.56,1.71,1.84,2.55,2.79-1.07,.18-2.13,.41-3.2,.52-.84,.09-1.7,.02-2.56,.02Z"/><path class="cls-9" d="M87.59,88.35c-4.44,.25-7.21-.93-6.22-6.15,.06-.33-1.18-1.16-1.91-1.35-1.33-.34-3.72-.03-3.92-.61-.62-1.76-.4-3.81-.51-5.75,1.17,0,2.38-.22,3.49,.03,3.4,.77,6.89,1.43,10.02,2.84,.71,.32,.15,3.52,.1,5.4-.03,1.2-.26,2.4-.25,3.6,0,.51,.4,1.01,.62,1.51l-1.41,.47Z"/><path class="cls-9" d="M106.86,114.92l-5.73-2.86c.64-.92,1.13-2,1.93-2.74,2.92-2.72,3.26-5.09-.38-7.53-.81-.54-1.04-1.94-1.54-2.95,.99-.45,2.05-1.36,2.97-1.24,1.07,.14,2.03,1.17,3.03,1.82,.05,.03-.02,.23,.03,.27,3.38,2.94,7.51,5.75,.15,9.06-.7,.31-.28,3.12-.46,6.16Z"/><path class="cls-9" d="M60.36,95.18c.97,1.66,2.25,3.24,2.74,5.04,.16,.6-1.68,1.74-2.61,2.64-1.54-2.15-3.07-4.29-4.61-6.44,1.49-.41,2.99-.82,4.48-1.23h0Z"/><path class="cls-9" d="M98.5,102.91c.98,1.23,2.34,2.53,2.17,2.78-.96,1.39-2.28,3.5-3.49,3.52-1.57,.02-3.17-1.7-4.75-2.68,1.87-1.12,3.74-2.23,6.08-3.62Z"/><path class="cls-9" d="M120.89,99.41c.61,1.42,.93,1.96,1.08,2.55,.35,1.36,.61,2.73,.91,4.1l.88,4.03c-.4-.05-.97,.05-1.16-.18-1.55-1.76-3.47-3.41-4.33-5.48-.39-.94,1.37-2.77,2.62-5.02Z"/><path class="cls-9" d="M93.79,82.35c1,1.24,1.92,1.98,2.18,2.9,.12,.44-1.44,1.84-1.57,1.76-1.13-.71-2.12-1.67-3.14-2.56,.68-.56,1.35-1.12,2.54-2.1Z"/><path class="cls-6" d="M109.44,86.62c.19,1.33,.39,2.67,.58,4-.19-1.33-.39-2.67-.58-4Z"/><path class="cls-3" d="M193.92,31.21c-.17-.2-.34-.4-.51-.59,3.12-.52,6.22-1.33,9.36-1.5,18.84-1.06,37.69-1.99,56.54-2.94,1.8-.09,3.6,.05,5.41,.09-.4,2.81-2.67,2.41-4.57,2.66-4.7,.08-9.38,.55-14.08,.71-6.6,.22-13.18,1.11-19.8,.9-1.61-.2-3.22-.28-4.79,.22-3.24,.38-6.5,.58-9.76,.82-2.3-.37-4.53,1.56-6.87,.26-1.7-.61-3.34,.2-5.01,.23-2.02,.03-4.14,.74-5.92-.86Z"/><path class="cls-13" d="M260.58,28.42c1.38-.72,2.76-1.44,4.14-2.15,.74,0,1.48,0,2.22-.01,.72,.33,1.45,.67,2.17,1,.29,.18,.36,.42,.21,.73-4.9,3.38-10.44,5.53-15.73,8.16-.6,.3-1.28,.28-1.89-.11-.59-1.92,1.09-2.27,2.15-2.92,1.64-1.02,3.52-1.72,4.08-3.86,.72-.78,1.52-1.33,2.65-.83Z"/><path class="cls-8" d="M1.2,21.13c-.21-.24-.42-.48-.63-.73,.72-.72,1.5-2.12,2.16-2.07,10.16,.77,20.29,2.02,30.46,2.58,34.11,1.88,68.24,3.52,102.36,5.27,2.93,.15,5.85,.45,8.77,.68,1.21,.73,2.55,.31,3.82,.41,1.21,.1,2.24,.34,2.25,1.86-.03,.45-.15,.85-.59,1.08-8.66-.59-17.32-1.27-25.98-1.75-30.89-1.74-61.79-3.36-92.69-5.13-9.99-.57-19.96-1.46-29.93-2.21Z"/><path class="cls-14" d="M149.96,28.99c-1.88-.71-3.76-1.42-5.64-2.12,2.06-.06,4.11-.13,6.17-.19,.11,.11,.22,.21,.33,.32,.25,.9,.64,1.86-.86,2Z"/><path class="cls-14" d="M150.49,26.68c.15-.42,.29-.83,.44-1.25l.19,.16c.31,.65,.37,1.16-.61,1.12l-.03-.03Z"/><path class="cls-3" d="M204.36,63.87l-2.3,.16c-1,.23-2.1-.3-3.04,.39-.05,.12-.14,.2-.26,.25,.08-.63,.17-1.25,.25-1.88,1.78,.36,3.56,.72,5.34,1.09Z"/><path class="cls-3" d="M208.23,63.81c-.84,.02-1.67,.03-2.51,.05,.84-.02,1.67-.03,2.51-.05Z"/><path class="cls-19" d="M143.61,50.3c.95-2.71,1.9-5.43,2.85-8.14,.99-.69,.28-1.81,.66-2.65,.08-.52,.04-1.05-.01-1.58,.26-2.12-.03-4.39,1.68-6.1,.34-.53,.68-1.07,1.02-1.6,.05-.41,.1-.82,.15-1.23,.19-.76,.37-1.52,.56-2.29,.2-.37,.4-.74,.61-1.12,.34-.4,.68-.79,1.02-1.19,.52-.33,1.06-.49,1.67-.27,.94,.62,1.04,1.75,1.6,2.6,.09,.29,.12,.59,.12,.89-.17,1.79-.07,3.59-.23,5.37-.11,1.49-.62,2.94-.51,4.45,0,.44,0,.88,0,1.32,.15,1.13-.06,2.26,.06,3.38,2.57,1.6,4.9,.63,5.08-2.17,.11-1.76,.05-3.53,.09-5.3,.02-.6,.17-1.16,.56-1.63,.25-.22,.53-.28,.85-.19,.83,.76,1.24,1.77,1.7,2.75,.4,1.22,.15,2.49,.25,3.74,.07,2.01,1.38,2.32,3.06,2.42,2.38,.15,4.89-.65,7.12,.85,.26,2.44,.87,4.95-1.36,6.9-2.26,.81-4.65,.77-6.99,1.05-2.11-.25-2.62-2.13-3.59-3.53-.28-1.5-1.4-1.29-2.43-1.15-2.45,.34-4.78,1.19-7.14,1.87-.64,.18-1.29,.67-1.9,.54-2.71-.59-3.62,1.09-4.27,3.19-1.17,.4-2.02,.19-2.25-1.19Z"/><path class="cls-20" d="M133.65,30.81c4.19,2.51,8.37,5.02,12.56,7.54,.45-.14,.68,.07,.76,.5v.03c.21,0,.4,.03,.58,.11,.03,.09,.07,.18,.1,.27-.4,.97-.79,1.93-1.19,2.9-6.06-3.81-12.12-7.62-18.17-11.42,1.79,.03,3.58,.05,5.37,.08Z"/><path class="cls-13" d="M78.71,28.41c.72,.39,1.45,.78,2.17,1.17,1.99,2.58,4.97,3.71,7.73,5.12,4.21,2.16,8.42,4.3,12.63,6.45,1.07,.55,2.7,.92,2.01,2.82-11.11-5.6-22.23-11.19-33.34-16.79,2.94,.41,5.87,.81,8.8,1.22Z"/><path class="cls-14" d="M141.34,76.32c-.14-2.97-.27-5.93-.41-8.9-.13-.21-.21-.44-.26-.69-.05-.36-.06-.73-.07-1.1-.02-.49-.12-.98-.15-1.47-.02-.51,.11-1.01,.13-1.52,.04-.68,.33-1.26,.75-1.78l.21-1.11c.29-.88,.96-1.63,1.8-1.53,2.79,.35,5.76,.12,8.12,2.12,.71,3.21,.86,6.51,1.35,9.75-1.63,4.58-4.79,7.42-9.58,8.42-.45,.05-.87-.02-1.25-.26-.59-.52-.01-1.43-.65-1.93Z"/><path class="cls-16" d="M103.25,43.97c-4.85-2.76-9.79-5.37-14.52-8.33-2.79-1.74-5.24-4.03-7.85-6.07,13.58,6.84,27.17,13.68,40.75,20.52,.84,.42,1.7,.8,2.56,1.2,3.05,.29,5.36,2.4,8.17,3.27,.23,.09,.46,.2,.68,.32,.79,.55,1.6,1.05,2.46,1.47,.31,.15,.62,.32,.93,.49,.21,.1,.42,.21,.62,.33,.31,.17,.61,.36,.9,.57,.34,.43,1.07,.73,.46,1.46-2.64-.36-5.27-.72-7.91-1.08-.19-.19-.38-.39-.57-.58-2.84-2.5-6.36-3.84-9.68-5.47-2.1-1.02-4.17-2.12-6.31-3.06l.02,.02c-.34-.42-.71-.42-1.11-.09l-2.22-1.15c-2.08-1.93-4.69-2.87-7.24-3.93l-.15,.11Z"/><path class="cls-11" d="M151.1,60.38c-3.18-.21-6.37-.43-9.55-.64-.06-.19-.12-.37-.17-.56-.63-.57-1.52-.58-2.19-1.02-.84-.54-1.43-1.2-.4-2.13,.18-.07,.37-.2,.54-.16,6.65,1.4,13.4,2.23,20.06,3.64,.73,.8,.35,1.51-.19,2.2-.72,.51-1.53,.54-2.36,.45-1.94-.48-4.17-.07-5.74-1.77Z"/><path class="cls-8" d="M141.34,60.86l.06,2.28c-1.56,1.44-3.6,.59-5.35,1.11-.49,.05-.94-.03-1.34-.33-1.02-.42-2.05-.83-3.07-1.25,1.09-.64,2.13-1.67,3.29-1.82,2.1-.27,4.28-.03,6.42,0Z"/><path class="cls-18" d="M138.46,56.51c.97,.89,1.94,1.78,2.91,2.67-.99,0-1.97,0-2.96,0-.35-.36-.7-.71-1.06-1.07-.18-.27-.38-.5-.75-.34-.17,.01-.32-.03-.46-.13-.06-.38-.26-.57-.66-.5-.89-.64-1.78-1.29-2.67-1.93,.42-.49,.97-.54,1.55-.47,1.18,.38,2.36,.78,3.55,1.14,.25,.14,.43,.35,.54,.61Z"/><path class="cls-16" d="M200.72,59.21c2.1-1.13,4.2-2.26,6.3-3.39,1.17,.04,.99,.8,.84,1.55-.54,.75-1.64,.65-2.15,1.44-1.66,.13-3.32,.26-4.98,.39Z"/><path class="cls-11" d="M207.54,57.55c-.18-.57-.35-1.15-.53-1.72,.03-.14,.06-.27,.1-.41,.48-.93,1.18-1.36,2.23-.96,.53,.38,.82,.9,.93,1.53,.04,.48-.2,.88-.39,1.29,.12,.11,.13,.22,.03,.35-.74,.17-1.47,.35-2.21,.52-.18-.09-.27-.21-.25-.36,.01-.16,.05-.24,.09-.24Z"/><path class="cls-13" d="M207.54,57.55l.16,.6c-.67,.22-1.33,.45-2,.67,.61-.42,1.22-.85,1.84-1.27Z"/><path class="cls-4" d="M209.86,58.09l-.12,.23,.12-.23h0Z"/><path class="cls-20" d="M38.7,63.76l-.03-1.04c2.32,0,4.64-.01,6.96-.02-2.31,.35-4.62,.71-6.93,1.06Z"/><path class="cls-15" d="M130.53,65.6c2.12,.05,4.24,.09,6.36,.14,.26,.5,.21,.93-.27,1.28-1.38,.72-2.85,.55-4.32,.44-.69,0-1.26-.31-1.79-.72l.06-.24c-.02-.3-.03-.6-.05-.89Z"/><path class="cls-10" d="M114.36,66.43c-.49-.08-.99-.17-1.48-.25,.49,.08,.99,.17,1.48,.25Z"/><path class="cls-15" d="M180.2,43.29l-.56,1.66c.41,.7,.12,1.35-.13,2-.84,1.44-1.19,3.09-1.96,4.56-.81,.93-1.42,1.99-2.01,3.07-.41,.75-.8,1.91-2.09,1.02-.67-.78-.79-1.71-.68-2.67,1.04-8.73,1.9-17.49,5.59-25.64,.15-.29,.36-.52,.63-.7l4.33,1.71c-4.24,3.44-2.17,7.52-1.15,11.5,.25,1.68-.58,2.74-1.97,3.5Z"/><path class="cls-6" d="M178.99,26.58c-.06,.18-.13,.35-.2,.52-.3,.64-.38,1.51-1.44,1.34-.54-.37-.78-.95-1.08-1.49-.23-.44-.39-.89-.41-1.39,0-.68,.06-1.38-.66-1.79-3.69-.16-7.39-.85-11.02,.4-.18,.36-.25,.75-.25,1.15,.04,1.1,.02,2.2-.02,3.3,0,.4-.02,.8-.03,1.2-.01,.51-.06,1.02-.16,1.52-.08,.47-.17,.94-.13,1.42,.04,.24,.06,.47,.08,.71,.04,.62,.02,1.23-.38,1.76-.21,.17-.43,.19-.67,.07l-1.35-2.45c-1.41-2.04-.69-4.33-.75-6.52,.01-.42,.02-.84-.04-1.26-1.92-1.58-3.55-1.21-4.9,1.1-.15,.22-.35,.38-.6,.47l-1.05-2.19c-.43-.56-.42-1.1,.06-1.62,.15-.09,.31-.14,.48-.17,.51-.43,1.29,.03,1.76-.53,8.34-.23,16.67-.46,25.01-.7,.22,.35,.43,.69,.65,1.04-.23,1.8-2.37,.33-2.86,1.67l-.03,2.44Z"/><path class="cls-8" d="M178.9,46.55c.24-.53,.49-1.07,.73-1.6,4.05,1.14,8.11,2.29,12.17,3.43,.95,.18,1.91,.35,2.86,.53-.59,.81-1.04,1.78-1.79,2.4-1.48,1.23-3.12,2.28-4.7,3.4-1.15,.19-1.59-1.1-2.58-1.24-1.66-.7-1.39-3.11-3.24-3.64-1.12-1.13-2.74-1.73-3.45-3.28Z"/><path class="cls-7" d="M180.2,43.29c.55-1.16,1.11-2.32,1.66-3.47-.03-3.74,.4-7.33,3.33-10.1,.24,2.93,.19,5.91,.77,8.77,1.12,5.48-.86,6.78-5.76,4.81Z"/><path class="cls-2" d="M187.81,29.73c.58,.9,1.18,1.46,1.31,2.1,.81,4.35,1.54,8.72,2.24,13.09,.04,.27-.47,.9-.52,.88-1-.4-2.76-.8-2.82-1.36-.49-4.51-.67-9.05-.91-13.58-.01-.24,.31-.51,.72-1.13Z"/><path class="cls-16" d="M185.19,29.71c-1.11,3.37-2.22,6.74-3.33,10.1-3.11-3.12-2.2-10.32,1.45-11.52,.63,.47,1.25,.94,1.87,1.41Z"/><path class="cls-16" d="M179.02,24.14c.95-.56,1.91-1.11,2.86-1.67,.61,.24,1.29,.38,1.83,.74,.75,.51,1.4,1.17,2.09,1.77-.91,.04-1.83,.22-2.72,.09-1.37-.2-2.71-.61-4.07-.94Z"/><path class="cls-11" d="M191.61,37.52l.56,.59c.2,.24,.38,.49,.53,.76,.32,.96,.21,1.84-.47,2.62l-.18,.05c-.15-1.34-.3-2.69-.44-4.03Z"/><path class="cls-15" d="M187.59,26.03l-.39,.65c-.2-.16-.56-.3-.58-.47-.03-.24,.2-.51,.32-.77l.65,.59Z"/><path class="cls-11" d="M191.51,35.37c.04,.73,.08,1.45,.12,2.18-.04-.73-.08-1.45-.12-2.18Z"/><path class="cls-9" d="M26.41,60.82l-.83-.34c.28,.11,.55,.23,.83,.34Z"/><path class="cls-2" d="M225.75,66.03l-4.52-.13c-.28-.52-.25-.96,.28-1.3,4.44-.96,8.99-.17,13.46-.78,.83-.11,1.7,.02,2.42-.56l1.12,.04c1.78,.94,3.62,.35,5.45,.26,2.14-.11,4.28-.04,6.42-.03,3-.08,6,.25,8.99-.22,1.8,.05,3.56-.63,5.37-.22,.46,.12,.94,.13,1.41,.12,1.37-.3,2.76-.31,4.15-.31,.68,.33,1.56,.53,1.12,1.63-1.49,.37-3.04-.15-4.52,.31-13.72,.4-27.44,.8-41.15,1.2Z"/><path class="cls-13" d="M271.48,64.32l-1.15-.82c.72-1.34,2-.81,3.04-.82,5.75-.05,11.5-.23,17.25-.59,.66-.04,1.33-.04,1.86-.53,.41-.01,.83-.02,1.24-.03,2.22,.37,4.44,.79,6.67,1.09,1.01,.14,2.04,.05,3.06,.06,1.5,.79,3.27-.34,4.74,.67-5.95,.31-11.9,.61-17.85,.92-5.36,.08-10.72,.17-16.08,.25-.94,.12-1.89,.42-2.78-.19Z"/><path class="cls-7" d="M219.51,65.21c.58-.02,1.16-.04,1.74-.07,0,.25-.02,.5-.03,.76-3.05-.15-6.11-.3-9.16-.44h.04c.26-.17,.61-.2,.8-.49,0-.37,0-.74,.01-1.11,.39,0,.78,0,1.17,0,.46,.49,.91,.99,1.37,1.48,.67-.19,1.35-.1,2.02-.12,.68,0,1.35,0,2.03-.02Z"/><path class="cls-13" d="M265.05,63.73c.07-.35,.13-.71,.2-1.06,.37-.01,.74-.02,1.11-.03,.04,.36,.09,.73,.13,1.09-.48,0-.97,0-1.45,0Z"/><path class="cls-16" d="M269.56,27.25l-.2,.17-.25-.07v-.1c.14,0,.29,0,.44,0Z"/><path class="cls-9" d="M153.98,22.83c-.02,.54-.04,1.08-.06,1.62-.59-.01-1.18-.03-1.77-.04,.61-.53,1.23-1.05,1.84-1.58Z"/><path class="cls-19" d="M156.22,22.13c-.59,.18-1.18,.35-1.76,.53,.59-.18,1.18-.35,1.76-.53Z"/><path class="cls-8" d="M180.32,19.59c-.14,.08-.29,.21-.43,.21-.14,0-.26-.16-.39-.25,.14-.07,.29-.21,.43-.21,.14,0,.27,.15,.4,.25Z"/><path class="cls-7" d="M308.19,63.34c-1.58-.22-3.16-.44-4.74-.67,2.48-.01,4.96-.03,7.43-.04-.9,.23-1.8,.47-2.7,.7Z"/><path class="cls-1" d="M301.51,113.53l.54,.93c-.25,.12-.63,.41-.74,.33-.24-.18-.38-.53-.48-.84-.02-.05,.36-.23,.67-.42Z"/><path class="cls-16" d="M271.48,64.32c.93,.06,1.86,.13,2.78,.19-2.45,.11-4.9,.21-7.35,.32,1.52-.17,3.05-.34,4.57-.51Z"/><path class="cls-18" d="M253.23,72.35l-1.45-.96,.48-.48c.32,.48,.64,.97,.96,1.45h0Z"/><path class="cls-18" d="M167.27,84.06c2.46,.09,4.93,.05,7.37,.33,1.16,.13,2.89,.62,3.22,1.42,.43,1.04-.42,2.55-.44,3.86-.01,1.5,.29,3.01,.45,4.52,.91-.63,1.74-1.44,2.74-1.85,1.73-.7,3.56-1.14,5.34-1.69,.09,1.11,.13,2.22,.27,3.32,.13,1.01,.47,2.01,.48,3.01,0,.5-.53,1-.81,1.5-.37-.33-.79-.62-1.1-.99-.6-.73-1.46-2.24-1.64-2.16-1.26,.58-2.93,1.21-3.45,2.31-2.63,5.55-7.58,6.17-11.57,1.52-.47-.55-2.93,.58-4.46,.96-.63,.16-1.23,.4-1.85,.61-.61-.71-.33-1.44-.08-2.18,.22-.57,.51-1.12,.59-1.73,.04-.24,.1-.47,.17-.71,.21-.69,.44-1.37,.61-2.07,.21-.69,.18-1.45,.61-2.07,.42-.6,.79-1.22,1.05-1.91,.39-.7,.35-1.49,.48-2.25,.72-1.22-.15-3.3,2.02-3.74Z"/><path class="cls-15" d="M162.96,96.91l-.51,1.68c-1.5,1.46-3.51-.35-5.06,.79-.18-1.76-.54-3.53-.49-5.28,.03-1.16,.63-2.31,.98-3.47-.04-2.7,1.39-4.96,2.62-7.12,1.35-2.38,2.43-4.94,4.14-7.12,.71-.91,.93-1.85,.37-2.9-.3-1.42,.38-2.67,.72-3.97,.66-3.12-.02-4.64-2.83-6.26-.5-.23-1.02-.37-1.58-.33-.88-.27-2.19,.11-2.21-1.46l.56-1.66c.09-.1,.17-.21,.26-.31,.95-.6,2.09-.4,3.1-.73,.4-.06,.79-.04,1.18,.06,1.12,.68,2.5,.42,3.65,.98,.15,.22,.26,.46,.32,.72,.16,1.19-.53,2.47,.37,3.58,.3,.38,.67,.78,1.17,.64,.61-.17,.44-.73,.36-1.18-.22-1.21-.53-2.42,.11-3.61,1.14-.93,2.02-.04,2.97,.41,.21,.16,.39,.35,.54,.56,.4,.54,.3,1.45,1.21,1.6,.58,.05,1.16,0,1.74,.11,.47,.1,.89,.31,1.25,.61,.17,.15,.33,.31,.48,.49,.23,.24,.46,.48,.72,.71,.18,.14,.34,.29,.5,.45,.38,.43,.76,.87,.58,1.51l.03,1.97c-1.6,1.13-2.87-.33-4.3-.53-3.11-.84-4.51-.03-5.39,3.14-.87,1.88-.89,3.86-.7,5.87-.36,1.26-.75,2.52-1.12,3.78-.24,.89-1.6,.85-1.6,1.92,.14,.41,.42,.76,.53,1.18-.09,.12-.2,.23-.33,.32-.47,1.41-.94,2.82-1.41,4.24-1.5-.13-.43-1.31-.78-1.91-.08-.14,.16-.26,0-.4-.01,.19,0,.37-.02,.56-.07,1.28,.38,2.6-.39,3.81-1.21,.95-1.51,2.6-3.16,3.37-1.53,.71-.83,2.26,1.44,3.19Z"/><path class="cls-7" d="M167.6,83.74l-1.13-.57c.47-1.15,1.49-1.38,2.53-1.36,2.93,.03,5.7-.59,8.41-1.68,.84-.34,1.79-.63,2.67,.05,2.74,.72,5.49,1.42,8.21,2.22,.12,.04-.02,.96-.03,1.48,.49,.22,.83,.53,.68,1.14-.26,.62-.72,.99-1.38,1.11-6.65-.79-13.3-1.59-19.96-2.38Z"/><path class="cls-16" d="M187.56,86.13l1.29-1.22c2.21,.17,3.16,1.67,3.75,3.55,0,.55-.2,1.03-.52,1.46-.19,.18-.41,.29-.68,.33l-3.26-3c.2-.09,.28-.24,.21-.45-.04-.12-.12-.17-.21-.17l.04,.04c-.16-.24-.35-.45-.6-.6v.07Z"/><path class="cls-16" d="M196.75,94.04c.13,.11,.18,.26,.14,.43-.27,.27-.54,.53-.81,.8-1.37-1.48-2.75-2.96-4.12-4.44,.05-.26,.16-.48,.34-.66,.43-.32,.9-.51,1.44-.53,2.6,.38,2.61,2.52,3,4.41Z"/><path class="cls-16" d="M157.38,99.37c1.69-.26,3.37-.52,5.06-.79-.2,.71-.41,1.42-.61,2.14-.16,.03-.32,.08-.48,.15-1.32-.5-2.65-1-3.97-1.5Z"/><path class="cls-7" d="M188.13,86.63v.61c-.05-.14-.11-.27-.13-.41,0-.06,.08-.14,.13-.2Z"/><path class="cls-7" d="M187.56,86.06c.2,.2,.4,.4,.6,.6-.2-.2-.4-.4-.6-.6Z"/><path class="cls-16" d="M191.96,90.82c-.19-.19-.38-.39-.57-.58,.07-.06,.14-.13,.21-.2,.51-.15,.69,.05,.58,.55-.07,.08-.15,.15-.22,.23Z"/><path class="cls-18" d="M129.96,82.08l2.3-1.73c3.66,2.03,6.46,4.71,6.91,9.16l-.02,1.12c-.11,.38-.16,.76-.09,1.15,.4,1.14,.8,2.28,1.19,3.42h-.02c-.18,.37-.36,.76-.54,1.15-5.41,1.16-2.71-3.24-3.56-5.2-1.86-1.8-4.08-1.6-6.35-1.13-.39,.09-.77,.03-1.16,0-.36-.67-1.16-1.48-1-1.99,.62-2.03,1.53-3.97,2.34-5.95Z"/><path class="cls-9" d="M139.17,89.51c-2.3-3.05-4.61-6.1-6.91-9.16,.71-1.52,1.41-3.03,2.12-4.55,1.62,1.68,3.3,3.3,4.84,5.04,1.11,1.27,2.04,2.7,3.05,4.05,.27,.62,.28,1.23-.16,1.79-.52,.36-1.1,.66-1.54,1.09-.53,.52-.93,1.15-1.39,1.73Z"/><path class="cls-6" d="M157.14,90.6c-1.86,.69-3.68,1.63-5.61,1.96-.76,.13-1.76-1.11-2.64-1.73,.17-2.61,2.36-3.83,3.81-5.57,1.97-2.12,4.21-3.13,7.03-1.67,.28,2.75-1.22,4.86-2.59,7.01Z"/><path class="cls-11" d="M157.14,90.6c.84-2.24,1.67-4.48,2.51-6.72-.65-1.46,.36-2.65,.63-3.96,1.31-1.84,2.43-3.77,2.77-6.06,.7-.56,1.46-.82,2.34-.43-.66,2.29-1.06,4.71-2.04,6.85-1.62,3.54-3.63,6.9-5.47,10.34-.24,0-.49-.02-.73-.02Z"/><path class="cls-6" d="M146.6,89.23l-2.48-2.59c-.22-.21-.38-.45-.48-.74-.18-.58-.18-1.17-.15-1.77,.04-.62,.2-1.19,.64-1.65,.86-.5,1.76-.3,2.65-.14,1.32,.08,2.62,.33,3.9,.64,.91,.22,1.95,.43,1.54,1.82-1.59,1.84-2.71,4.28-5.63,4.43Z"/><path class="cls-16" d="M146.6,89.23l4.81-4.34c1.52-.5,1.86,.12,1.41,1.49-1.31,1.49-2.63,2.97-3.94,4.46-1.16,.66-2.32,1.32-3.48,1.98l1.19-3.59Z"/><path class="cls-16" d="M144.23,84.33c-.11,.64-.23,1.29-.34,1.93-.47,.44-.16,1.44-1.1,1.55-.23-.38-.46-.75-.7-1.13,.05-.6,.1-1.2,.16-1.79,.2-.19,.4-.39,.6-.59,.47-.42,.93-.39,1.38,.03Z"/><path class="cls-12" d="M142.79,87.81c.37-.52,.73-1.03,1.1-1.55,.04,.15,.11,.28,.23,.38-.29,1.24-.57,2.48-.86,3.72-.16-.85-.31-1.7-.47-2.55Z"/><path class="cls-9" d="M139.06,91.77l-.83-.49c.31-.22,.62-.44,.92-.66-.03,.38-.06,.76-.09,1.15Z"/><path class="cls-6" d="M140.25,95.19l.18-.72,.21,.12c-.14,.19-.27,.39-.41,.58h.02Z"/><path class="cls-16" d="M189.23,58.65c.04,2.65,.09,5.31,.14,7.96l-.06,.06c-2.07-.69-4.63,.27-6.27-1.87-.39-1.36-.25-2.78-.53-4.15-.07-.64-.05-1.28,.29-1.84,.07-.16,.3-.15,.38-.31-.15-.05-.3-.06-.47,0-1.78-.48-1.55-1.84-1.42-3.17,.08-.28,.2-.54,.37-.78,.4-.45,.89-.73,1.46-.9,.56-.13,1.11-.1,1.64,.18,1.51,1.59,2.93,3.27,4.47,4.83Z"/><path class="cls-17" d="M192.23,41.5c-.02-.91-.04-1.83-.05-2.74,.18-.31,.4-.53,.8-.38,1.54-.27,7.05-4.05,8.59-4.32-.18,.7,5.22-1.07,5.04-.37-1.07,.64-11.69,7.25-12.76,7.89-.54-.02-1.08-.05-1.61-.08Z"/><path class="cls-11" d="M189.23,58.65c-1.51-1.5-3.01-3-4.52-4.5,.15-.6,.64-.85,1.11-1.13,.78,.56,1.57,1.13,2.35,1.69,.35,1.31,.7,2.63,1.06,3.94Z"/><path class="cls-12" d="M210.52,99.64c-1.7-.14-3.4-.28-5.1-.42,.75-.99,1.5-1.97,2.25-2.96,.95,1.13,1.9,2.25,2.85,3.38Z"/><path class="cls-12" d="M211.47,99.29c0,1.68,0,3.36,.01,5.05-.32-1.57-.63-3.14-.95-4.71,.31-.11,.63-.23,.94-.34Z"/><path class="cls-12" d="M129.44,89.52c2.23,.54,4.46,1.08,6.69,1.62-2.55,0-5.1,0-7.65,.01,.05-.21,.1-.42,.16-.63,.6-.07,.39-.78,.8-1.01Z"/><path class="cls-3" d="M191.07,74.05c2.11,1.32,4.22,2.65,6.33,3.97-4.5,1.81-8.99,3.66-13.25-.52-.68-3.06,.3-4.18,4.08-4.67l2.26,.77c.2,.15,.39,.3,.58,.46Z"/><path class="cls-6" d="M196.75,94.04c-1.12-1.45-2.24-2.89-3.36-4.34-.51-.07-.82-.36-.92-.87-1.21-1.31-2.42-2.62-3.62-3.92-.2-.34-.39-.69-.59-1.03,3.06,.42,7.93-3.69,8.36,3.33,.1,1.3,.2,2.61,.3,3.91,.37,1.01,.7,2.02-.19,2.94l.03-.02Z"/><path class="cls-17" d="M188.23,72.83c-1.36,1.56-2.72,3.11-4.08,4.67-1.12,.39-2.24,.77-3.37,1.16-.08-.1-.17-.2-.25-.3,.03-1.47,1.92-3.36-.94-4.18-.23-.14-.43-.32-.6-.52-.27-.55-.07-1.02,.23-1.47,.23-.3,.51-.55,.8-.77,.37-.28,.66-.62,.78-1.08,.1-.34,.26-.63,.56-.83,2.29,1.11,4.57,2.22,6.86,3.33Z"/><path class="cls-17" d="M180.08,80.18c-4.54,1-9.07,2-13.61,2.99,.58-.76,1.16-1.51,1.75-2.27,4.13-1,8.06-3.08,12.52-2.3l.05,.05c-.23,.51-.47,1.01-.7,1.52Z"/><path class="cls-15" d="M183.59,64.82c1.91,.62,3.81,1.24,5.71,1.85,4.35,1.72,8.71,3.43,13.06,5.15-.36,4.2-2.38,5.18-6.02,3.14-5-2.81-10.01-5.6-15.02-8.39-.49-.59-.51-1.19-.06-1.8,.78-.52,1.55-.5,2.31,.06Z"/><path class="cls-14" d="M181.36,69.5l-.03,1.13c-.07,.68-.78,.76-1.11,1.19-.2,.18-.4,.37-.59,.55-2.83,.13-3.32-2.3-4.43-4.05,.03-.47,.13-.89,.67-1.03,1.44,.37,2.88,.73,4.32,1.1,.39,.37,.79,.75,1.18,1.12Z"/><path class="cls-7" d="M181.27,65.12l.06,1.45c-.39-.05-.79-.1-1.18-.15-.36-.52-.73-1.03-1.09-1.55,.81-.55,1.56-.64,2.21,.25Z"/><path class="cls-17" d="M191.07,74.05c-.19-.15-.39-.31-.58-.46,.19,.15,.39,.31,.58,.46Z"/><path class="cls-14" d="M199.02,64.41c1.01-.13,2.02-.26,3.04-.39-1.01,.13-2.02,.26-3.04,.39Z"/><path class="cls-3" d="M212.91,64.97l-.8,.48,.8-.48Z"/><path class="cls-13" d="M196.72,94.06c.06-.98,.13-1.96,.19-2.94,.12-.07,.24-.06,.35,.03,.46,.42,.93,.85,1.39,1.27,1.27,.57,.73,1.39,.3,2.19l-2.23-.55Z"/><path class="cls-18" d="M198.94,94.62c-.1-.73-.2-1.46-.3-2.19,.31-.03,.63-.06,.95-.09-.22,.76-.43,1.52-.65,2.29Z"/><path class="cls-2" d="M129.44,89.52c-.27,.34-.53,.67-.8,1.01-.05-.17-.06-.34-.02-.51l.82-.5Z"/><path class="cls-18" d="M122.56,75.82c1.53-1.54,3.06-3.08,4.6-4.62,1.24,.89,3.5,1.76,3.52,2.69,.05,1.92-1.09,3.87-1.73,5.81-2.13-1.29-4.26-2.59-6.38-3.88Z"/><path class="cls-13" d="M146.55,83.11c-.7-.09-1.41-.19-2.11-.28-.78-.07-1.1-.62-1.33-1.26-.07-.25-.15-.5-.23-.74-.34-.67-.68-1.34-1.02-2.01-.19-.35-.15-.68,.11-.97l1.12,.22c1.93-.01,3.68,.58,5.31,1.6,.91,1.97-.39,2.75-1.85,3.45Z"/><path class="cls-18" d="M112.85,74.09c1.72,.58,3.43,1.16,5.15,1.74-1.72-.58-3.43-1.16-5.15-1.74Z"/><path class="cls-18" d="M132.28,66.78c.18,2.05,.36,4.1,.54,6.15-.75-1.32-1.5-2.64-2.24-3.96-.02-.74-.05-1.49-.07-2.24,.59,.02,1.18,.03,1.77,.05Z"/><path class="cls-12" d="M143.3,80.95c.38,.63,.76,1.26,1.14,1.88-.07,.5-.14,1-.21,1.5-.46-.01-.92-.02-1.38-.03,0-.71-.01-1.42-.02-2.13-.04-.48-.12-.98,.47-1.22Z"/><path class="cls-3" d="M141.97,77.84c-.04,.32-.08,.65-.11,.97-.17-.83-.35-1.67-.52-2.5,.21,.51,.42,1.02,.63,1.53Z"/><path class="cls-16" d="M143.3,80.95c-.16,.41-.31,.81-.47,1.22,.01-.45,.03-.89,.04-1.34,.15,.03,.29,.07,.43,.13Z"/><path class="cls-15" d="M211.31,30.68c-2.76,1.76-5.52,3.52-8.28,5.28-1.2-.06-2.4-.13-3.61-.19,.78-.72,1.5-1.52,2.35-2.15,1.13-.84,2.35-1.55,3.53-2.32,2-.21,4-.42,6-.63Z"/><path class="cls-19" d="M225.89,29.68c-1.56,.12-3.13,.25-4.69,.37,1.56-.12,3.13-.25,4.69-.37Z"/><path class="cls-16" d="M209.52,54.23c15-7.63,30-15.26,45.01-22.88,1.26-.64,2.58-1.14,3.88-1.7-2.28,2.1-4.56,4.2-6.85,6.3v-.07c-.35,.27-.92,.15-1.13,.65v-.06c-2.32,1.06-4.68,2.06-6.82,3.5l.02-.02c-.55,.43-1.4,.4-1.75,1.14v-.07c-.5,.45-1.33-.05-1.75,.61h.03c-2.05,1.22-4.46,1.7-6.46,3.05-3.18,2.16-7.07,3.05-10.06,5.55l-.05-.1c-.49,.47-1.31-.03-1.73,.61l.04-.02c-2.93,1.5-5.95,2.81-8.82,4.44-.95,.54-2.02,1.62-3.35,.65-.15-.39-.31-.79-.46-1.19,.12-.11,.2-.24,.25-.4Z"/><path class="cls-13" d="M113.95,49.01c5.55,2.52,11.11,5.04,16.66,7.56-.22,.32-.44,.64-.67,.96-5.33-2.84-10.66-5.68-16-8.53Z"/><path class="cls-13" d="M103.4,43.86c2.57,1.05,5.14,2.1,7.71,3.14l-.47,.78c-2.41-1.31-4.83-2.62-7.24-3.93Z"/><path class="cls-13" d="M112.87,48.94l1.11,.09-1.11-.09Z"/><path class="cls-15" d="M138.46,56.51c-.17-.04-.34-.1-.5-.17-1.48-1.8-1.1-4.25,1.12-7.08,1.51,.34,3.03,.69,4.54,1.03,.73,.26,1.46,.51,2.18,.77,1.42-.55,2.6,.23,3.77,.77,1.5,.69,3.12,.76,4.69,1.09,1.56,.63,3.19,1.08,4.67,1.9,.89,.93,.76,2.25,1.25,3.33,.08,.56,.02,1.09-.4,1.52l-.13,.14c-7.06-1.1-14.12-2.2-21.18-3.3Z"/><path class="cls-16" d="M134.54,55.26l-1.72-.03,.02,.02c-1.26-1.1-3.45-.94-4.01-2.98-.04-1.86,.22-3.6,1.85-4.8,.67,.05,1.34,.1,2.01,.14,.27-.1,.49-.04,.67,.18,1.53,.4,3.06,.8,4.58,1.19,.22,1.82-.73,3.38-1.16,5.06-.28,1.09-1.28,1.22-2.25,1.23Z"/><path class="cls-19" d="M130.68,47.46c-.47,1.64-.95,3.27-1.42,4.91-1.67,.53-2.83,.07-3.31-1.7,1.58-1.07,3.16-2.14,4.73-3.2Z"/><path class="cls-11" d="M134.54,55.26c1.14-2.09,2.27-4.19,3.41-6.28,.38,.1,.75,.19,1.13,.28-.37,2.36-.75,4.72-1.12,7.08-1.14-.36-2.28-.72-3.42-1.08Z"/><path class="cls-18" d="M125.95,50.66c1.1,.57,2.21,1.14,3.31,1.7,1.19,.96,2.38,1.92,3.58,2.88-2.88-1.32-5.76-2.63-8.64-3.95,.58-.21,1.17-.42,1.75-.63Z"/><path class="cls-19" d="M133.36,47.79c-.22-.06-.45-.12-.67-.18,.22,.06,.45,.12,.67,.18Z"/><path class="cls-8" d="M154.5,53.73c-2.9-.89-5.8-1.77-8.7-2.66-.44-3.2,.4-3.81,3.96-3.56,3.72,.26,7.58-1.63,11.41-2.47,.13-.03,.51,1.09,.78,1.68-2.55,2.26-5.16,4.46-7.45,7.01Z"/><path class="cls-7" d="M173.35,42.74c-2.46,0-5,.37-7.34-.17-1.31-.31-2.27-2.13-3.39-3.27,.71-1.24,1.08-2.74,2.55-3.43,.59-.26,1.22-.27,1.86-.28,2.49-.02,5.03-.65,7.44,.55,1.16,2.46,.36,4.59-1.12,6.61Z"/><path class="cls-11" d="M173.35,42.74c.44-2.15,.87-4.29,1.31-6.44-.46-2.98,.96-5.38,2.38-7.79,.13-.06,.26-.12,.39-.17,.46-.41,.91-.83,1.37-1.24-1.68,8.48-3.39,16.95-5,25.43-.22,1.14,.07,2.38,.12,3.58,.33,.32,.41,.73,.38,1.17-.32,1.19,.16,2.58-.87,3.6-1.02-.28-2.03-.56-3.05-.84-.78,.75-1.64,1.17-2.74,.72l-.1-.98c.36-1.02,1.3-1.28,2.17-1.55,1.85-.57,2.3-1.69,1.46-3.4-.1-.26-.17-.52-.22-.79-.06-.28-.09-.55-.11-.83-.03-1-.07-2,.1-2.99,.1-.44,.33-.8,.66-1.1l1.75-6.38Z"/><path class="cls-11" d="M154.5,53.73c2.48-2.34,4.96-4.67,7.45-7.01,.95,1.13,1.9,2.27,2.85,3.4-.06,1.72-2.06,1.36-2.66,2.5-.14,.19-.3,.37-.47,.53-.33,.31-.66,.62-.98,.95-.15,.17-.31,.32-.48,.46-.34,.29-.7,.54-1.15,.63-1.52-.49-3.04-.98-4.55-1.47Z"/><path class="cls-13" d="M161.32,25.62c-.02,2.41-.04,4.82-.06,7.23-.12,.06-.25,.11-.38,.16-2.11,1.02-4.21,.79-6.32-.02,.16-1.94,.32-3.87,.49-5.81,1.85-1.5,3.84-2.44,6.28-1.57Z"/><path class="cls-17" d="M160.82,34.72c-.3,4.01,2.13,9.62-5.43,9.35-.5-.02-.98-.89-1.47-1.36,1.56-2.52,3.77-4.56,5.21-7.16,.07-.26,.18-.49,.32-.72,.43-.42,.87-.61,1.37-.11Z"/><path class="cls-7" d="M160.82,34.72l-1.19,.52c-.26,.29-.5,.6-.8,.85-.22,.14-.46,.25-.7,.34-1.42,.03-2.51,1.37-4.03,1.01,.16-1.48,.31-2.96,.47-4.45,2.11,0,4.21,.01,6.32,.02-.02,.57-.04,1.14-.06,1.71Z"/><path class="cls-13" d="M149.96,41.53c.13-2.48,.27-4.95,.4-7.43,.57-.36,.98-1.28,1.87-.55-.77,2.67-1.53,5.33-2.3,8l.03-.03Z"/><path class="cls-7" d="M159.63,35.76c-1.9,2.32-3.81,4.63-5.71,6.95,.07-1.3,.14-2.61,.21-3.91,.93-1.78,2.74-2.24,4.38-2.96h-.02c.35-.31,.73-.32,1.13-.08Z"/><path class="cls-7" d="M152.23,33.56c-.62,.18-1.25,.36-1.87,.55,.02-.37-.04-.77,.07-1.12,.86-2.62,1.75-5.23,2.63-7.84-.28,2.8-.55,5.6-.83,8.4Z"/><path class="cls-20" d="M149.93,41.56c.75,.08,1.5,.16,2.24,.24-.31,1.13-.4,2.39-1,3.33-.34,.54-1.51,.56-2.3,.82,.2-.96,.37-1.92,.6-2.87,.12-.52,.32-1.03,.48-1.55l-.03,.03Z"/><path class="cls-14" d="M161.37,52.97c1.14-.95,2.28-1.89,3.42-2.84,2.27-.33,4.54-.67,6.81-1,0,.31,.01,.61,.02,.92-3.26,1.53-6.7,2.43-10.25,2.92Z"/><path class="cls-11" d="M161.32,25.62c-2.09,.52-4.19,1.05-6.28,1.57,0-.18-.03-.36-.08-.54,.04-.18,.08-.35,.13-.52,1.78-1.61,3.67-2.83,6.21-1.76l.02,1.25Z"/><path class="cls-20" d="M164.83,36.61c-.74,.9-1.47,1.8-2.21,2.69,0-1.33,0-2.67-.01-4,.1-.05,.2-.09,.31-.1,1.33-.47,2.07-.15,1.92,1.4Z"/><path class="cls-16" d="M158.52,35.83c-1.46,.99-2.92,1.97-4.38,2.96-.01-.45-.03-.91-.04-1.36,1.48-.53,2.95-1.07,4.43-1.6Z"/><path class="cls-20" d="M147.7,38.73c.05,.13,.11,.25,.13,.39,0,.03-.12,.09-.18,.14l.03,.02c-.15-.13-.19-.26-.14-.38,.05-.12,.11-.18,.16-.18v.02Z"/><path class="cls-19" d="M146.97,38.84c-.25-.17-.51-.33-.76-.5,.25,.17,.51,.33,.76,.5Z"/><path class="cls-19" d="M147.7,38.71l-.02,.57c-.23-.14-.46-.27-.69-.41,.24-.05,.47-.11,.71-.16Z"/><path class="cls-16" d="M151.1,60.38l5.76,1.07c1.08,3.12,1.43,6.47,3.07,9.4,.06,.29,.05,.58-.03,.87-1.4,1.9-3.03,3.46-5.54,3.69-2.11-.97-2.41-2.75-2.15-4.78l-1.12-10.25Z"/><path class="cls-3" d="M152.22,70.63c.78,1.52,1.55,3.04,2.33,4.56,.79,1.44-.43,2.04-1.22,2.74-.9,.81-1.74,1.72-2.86,2.28-.75,.26-1.47,.28-2.16-.17-1.74-.66-3.48-1.32-5.22-1.98,3.04-2.48,6.08-4.95,9.12-7.43Z"/><path class="cls-3" d="M140.8,64.3c-1.75-.14-3.5-.29-5.25-.43,1.95-.24,3.89-.48,5.84-.72-.2,.38-.39,.77-.59,1.16Z"/><path class="cls-7" d="M141.24,66.91l-4.4-.28c.02-.3,.03-.6,.05-.9,.54,0,1.08-.01,1.62-.02,.21,.03,.41,.04,.62,.03,.7,.02,1.41,.04,2.11,.06,0,.37,0,.74,0,1.1Z"/><path class="cls-19" d="M135.49,57.16c.22,.16,.44,.33,.66,.5-.22-.16-.44-.33-.66-.5Z"/><path class="cls-19" d="M136.61,57.79c.25,.11,.5,.22,.75,.34-.25-.11-.5-.22-.75-.34Z"/><path class="cls-14" d="M159.64,71.23c-.93-3.26-1.85-6.51-2.78-9.77,.74,0,1.48,.01,2.22,.02,.92,.24,1.84,.48,2.76,.71,.53,.41,1.16,.69,1.61,1.2,.52,1.02,.76,2.09,.6,3.24-1.07,1.92-1.55,4.4-4.41,4.6Z"/><path class="cls-13" d="M209.73,55.82c4.06-1.7,8.11-3.39,12.17-5.09-4,2.19-8.01,4.37-12.01,6.56-.05-.49-.1-.98-.16-1.46Z"/><path class="cls-13" d="M223.64,50.23c3.38-1.96,6.76-3.92,10.13-5.88,.39-.16,.73-.09,1.02,.21-3.72,1.89-7.43,3.78-11.15,5.67Z"/><path class="cls-20" d="M243.61,39.98c2.28-1.17,4.55-2.33,6.83-3.5-2.28,1.17-4.55,2.33-6.83,3.5Z"/><path class="cls-20" d="M234.79,44.56c-.34-.07-.68-.14-1.02-.21,2.13-.91,4.26-1.82,6.39-2.73-1.79,.98-3.58,1.96-5.37,2.94Z"/><path class="cls-20" d="M241.88,41.09c.58-.38,1.17-.76,1.75-1.14-.58,.38-1.17,.76-1.75,1.14Z"/><path class="cls-20" d="M240.13,41.63c.58-.2,1.16-.41,1.74-.61-.58,.2-1.16,.41-1.74,.61Z"/><path class="cls-13" d="M221.86,50.75l1.73-.61-1.73,.61Z"/><path class="cls-20" d="M250.43,36.54c.38-.22,.75-.44,1.13-.65-.38,.22-.75,.44-1.13,.65Z"/><path class="cls-15" d="M139.13,65.75l-.62-.03,.62,.03Z"/><path class="cls-19" d="M192.97,38.38c-.27,.13-.53,.25-.8,.38v-.64c.26,.09,.53,.17,.8,.26Z"/><path class="cls-8" d="M173.91,57.01v-.89c1.14-1.63,2.3-3.25,3.45-4.88,2.73-.5,3.5,1.59,4.47,3.4,.57,1.2,1.15,2.39,1.72,3.59,.18,.1,.23,.19,.16,.26-.06,.06-.13,.09-.2,.09-.21,.59-.41,1.18-.62,1.76-1.96,.66-3.48,1.97-4.91,3.39l-1.06-.55c-1.13-2-2.84-3.72-3.01-6.18Z"/><path class="cls-9" d="M181.83,54.64c-1.49-1.13-2.98-2.27-4.47-3.4,.51-1.56,1.03-3.12,1.54-4.69,1.18,.99,2.37,1.98,3.55,2.97-.07,.11-.13,.22-.19,.34-.89,.72-.89,1.53-.34,2.48,.43,.74,.75,1.55-.03,2.31h-.05Z"/><path class="cls-17" d="M164.83,36.61c-.64-.47-1.28-.94-1.92-1.4,0-.69,.02-1.39,.02-2.08,.05-.18,.13-.36,.27-.48,.86-.71,1.69-1.45,2.67-1.99-.94-.1-1.98,.39-2.78-.49v-1.2c1.08-1.01,2.44-.83,3.73-.86,3.16-.07,6.02-1.06,8.68-2.71,.31-.08,.61-.04,.88,.13l.72,1.1c-.14,.54-.03,1.1-.1,1.65-.32,1.63-1.27,2.62-2.83,3.25-2.83,1.16-4.82,3.71-7.73,4.77l-1.62,.31Z"/><path class="cls-2" d="M175.56,25.65c-4.15,1.1-8.3,2.21-12.45,3.31,.05-1.26,.09-2.52,.14-3.78,2.67-1.72,9.61-1.45,12.31,.47Z"/><path class="cls-11" d="M175.56,25.65c-4.1-.16-8.21-.32-12.31-.47l.05-1.5c4.47-1.25,8.98-.71,13.49-.36-.13,.74-.27,1.47-.4,2.21-.28,.04-.55,.08-.83,.13Z"/><path class="cls-2" d="M163.11,30.16c1.71-.08,3.42-.16,5.13-.23-1.76,1.07-3.53,2.13-5.29,3.2v-.05c-.19-.46-.15-.93,0-1.39l.17-1.51Z"/><path class="cls-7" d="M161.3,24.36c-2.07,.59-4.14,1.17-6.21,1.76,1.05-.94,1.98-2.2,3.21-2.69,.76-.3,1.98,.58,3,.93Z"/><path class="cls-2" d="M176.79,23.32c-4.5,.12-9,.24-13.49,.36,4.5-.12,9-.24,13.49-.36Z"/><path class="cls-11" d="M176.81,28.38c.1-.59,.2-1.17,.31-1.76,.1,.57,.2,1.15,.3,1.72l-.25,.22-.24,.03-.12-.21Z"/><path class="cls-17" d="M162.94,31.67c0,.46,0,.93,.01,1.39,0-.46,0-.93-.01-1.39Z"/><path class="cls-19" d="M185.82,53.02c-.37,.38-.74,.76-1.11,1.13-.55-.04-1.1-.07-1.66-.11-1.02-1.4-1.23-2.9-.6-4.52h0c1.12,1.17,2.25,2.33,3.37,3.5Z"/><path class="cls-17" d="M250.25,64.27c3.08-.12,6.17-.25,9.25-.37-3.08,.12-6.17,.25-9.25,.37Z"/><path class="cls-3" d="M217.88,65.53c-.81-.06-1.61-.12-2.42-.18,.82-.05,1.63-.1,2.45-.15l-.03,.32Z"/><path class="cls-2" d="M217.88,65.53c.03-.11,.04-.21,.03-.32,.54,0,1.07,0,1.61,0-.55,.11-1.09,.21-1.64,.32Z"/><path class="cls-16" d="M162.96,96.91c-.8,.09-2.08,.52-2.31,.2-.5-.69-.76-1.85-.55-2.67,.22-.82,1.07-1.52,1.76-2.15,.71-.64,1.56-1.13,2.35-1.68,.09,.11,.18,.21,.27,.32,.08,.58-.01,1.12-.41,1.58l-.07,1.57c-1.08,.49-1.26,1.29-.82,2.32l-.23,.51Z"/><path class="cls-16" d="M164.21,90.61c.16-.74,.35-1.47,.46-2.21,.13-.93,.19-1.87,.27-2.81,.3,.9,.61,1.81,.91,2.71-.21,.78-.41,1.56-.62,2.34-.34,.28-.68,.33-1.02-.02h0Z"/><path class="cls-15" d="M163.19,96.4c.27-.77,.54-1.55,.82-2.32-.27,.77-.54,1.55-.82,2.32Z"/><path class="cls-15" d="M164.22,90.62c.34,0,.68,.01,1.02,.02-.39,.63-.77,1.25-1.16,1.88,.05-.63,.09-1.26,.14-1.9Z"/><path class="cls-13" d="M180.74,78.61c-4.17,.77-8.35,1.54-12.52,2.3,.37-1.36,.75-2.72,1.12-4.08,.94-1.06,2.18-1.16,3.47-1.1,.83,.11,1.71,.57,2.37-.4,.98-.84,2.04-1.52,3.35-1.71,.35,.02,.73,.26,1.01-.15,4.15,.83,3.18,2.86,1.21,5.13Z"/><path class="cls-3" d="M178.95,73.92c-1.13,.61-2.26,1.22-3.39,1.83-.6,.75-1.42,.58-2.21,.52-1.34,.19-2.68,.37-4.02,.55,.19-2.07,.39-4.14,.58-6.21,1.59-1.48,3.49-2.2,5.64-2.33,1.36,1.36,2.72,2.72,4.08,4.08-.19,.35-.38,.71-.57,1.06,.17,.15,.21,.27,.12,.37-.07,.08-.15,.12-.23,.12Z"/><path class="cls-3" d="M159.64,71.23c1.33-1.53,2.67-3.05,4-4.58,1.85,.11,2.26,1.62,2.85,2.95l-1.11,3.84c-.67,.22-1.35,.44-2.02,.66-2.28,.88-3.07-.61-3.73-2.33,0-.18,0-.36,.01-.54Z"/><path class="cls-2" d="M171.59,54.56c3.55,5.55-2.64,3.53-4.05,5.21-1.14-.2-2.28-.41-3.42-.61-.27-.39-.27-.8-.09-1.22,2.05-2.18,4.78-2.84,7.56-3.39Z"/><path class="cls-14" d="M177.98,63.74c1.64-1.13,3.28-2.26,4.92-3.39,.23,1.49,.46,2.98,.69,4.47-.77,.1-1.54,.2-2.32,.3-.74-.08-1.47-.17-2.21-.25v.06c-.31-.33-.87-.21-1.14-.63,.01-.19,.03-.37,.06-.56Z"/><path class="cls-7" d="M167.64,60.76c.91-.24,1.82-.48,2.74-.72,.04,.65,.06,1.31,.11,1.96,.11,1.34,.23,2.68,.35,4.02-.86-.24-2.29-.26-2.47-.75-.51-1.41-.53-3-.73-4.52Z"/><path class="cls-7" d="M166.49,69.59c-.95-.98-1.9-1.96-2.85-2.95-.25-1.12-.51-2.24-.76-3.36-.08-.26,0-.47,.23-.62l3.38,6.92Z"/><path class="cls-7" d="M175.55,68.29c-1.88,.78-3.76,1.55-5.64,2.33,1.98-1.11,3.97-2.22,5.95-3.33-.1,.33-.2,.67-.31,1Z"/><path class="cls-7" d="M173.91,57.01c1,2.06,2,4.12,3.01,6.18-.78,0-1.56,0-2.34-.01-.94-.46-.57-1.63-1.21-2.25l.05-.04c.16-1.29,.33-2.58,.49-3.88Z"/><path class="cls-14" d="M164.45,58.36c-.11,.27-.22,.54-.33,.81-.35,.02-.7,.04-1.04,.07-1.32,.22-2.45-.21-3.44-1.06-.2-.99-.39-1.98-.59-2.97,.39-.37,.78-.73,1.18-1.1,.3,.86,.72,1.52,1.63,1.99,1.01,.51,2.34,.82,2.59,2.27Z"/><path class="cls-2" d="M159.64,58.17c1.15,.35,2.29,.71,3.44,1.06-1.1,.15-2.2,.29-3.3,.44-.04-.5-.09-1-.13-1.5Z"/><path class="cls-11" d="M173.37,60.93c.4,.75,.81,1.5,1.21,2.25-.4-.75-.81-1.5-1.21-2.25Z"/><path class="cls-16" d="M163.41,87.35c-.14-.28-.3-.44-.29-.59,.02-.26,.15-.51,.23-.76,.09,.16,.24,.31,.24,.47,0,.26-.1,.51-.18,.88Z"/><path class="cls-3" d="M163.11,62.67c-.08,.21-.15,.41-.23,.62-.35-.37-.69-.73-1.04-1.1,.42,.16,.84,.32,1.27,.48Z"/><path class="cls-7" d="M177.92,64.3c.39,.21,.77,.42,1.16,.63-.39-.21-.77-.42-1.16-.63Z"/><path class="cls-11" d="M192.47,88.83c.31,.29,.62,.58,.92,.87-.4,.3-.8,.6-1.2,.89-.19-.18-.39-.37-.58-.55,.29-.4,.58-.81,.86-1.21Z"/><path class="cls-7" d="M148.31,80.04c.74-.1,1.47-.2,2.21-.3,3.51-1.15,7.01-1.72,10.5,.05-.46,1.37-.92,2.73-1.38,4.1-2.27,.83-4.55,1.66-6.82,2.49-.47-.5-.94-.99-1.41-1.49-1.62-.59-3.24-1.18-4.86-1.77,.59-1.02,1.17-2.05,1.76-3.07Z"/><path class="cls-13" d="M161.02,79.79c-3.5-.02-7-.03-10.5-.05,1.34-1.52,2.69-3.03,4.03-4.55,1.69-1.14,3.39-2.29,5.08-3.43,1.24,.78,2.48,1.55,3.73,2.33-.78,1.9-1.56,3.8-2.34,5.7Z"/><path class="cls-11" d="M182.46,49.52c.2,1.51,.4,3.01,.6,4.52-.39,.2-.78,.4-1.17,.6,.19-1.71,.38-3.42,.58-5.12Z"/><path class="cls-11" d="M183.51,58.59c.02-.12,.03-.24,.05-.36,.14-.5,.28-1,.42-1.5l.63,.29-1.09,1.56Z"/><path class="cls-3" d="M180.22,71.82c.37-.4,.74-.79,1.11-1.19-.37,.4-.74,.79-1.11,1.19Z"/><path class="cls-15" d="M178.95,73.92c.03-.16,.07-.33,.1-.49,.16,.02,.32,.04,.47,.04-.19,.15-.38,.3-.58,.45Z"/><path class="cls-20" d="M176.81,28.38c.13,.05,.25,.11,.36,.18-.84,2.58-1.68,5.16-2.52,7.74-2.73,0-5.46,0-8.2-.01,3.45-2.64,6.9-5.27,10.35-7.91Z"/><path class="cls-8" d="M164.45,58.36c-1.41-1.42-2.82-2.84-4.23-4.26h0c.38-.38,.76-.76,1.15-1.14h0c3.42-.97,6.84-1.95,10.25-2.92-.01,1.15-.03,2.29-.04,3.44-.12,.14-.16,.28-.13,.42,.04,.14,.07,.21,.11,.21,0,.15,.02,.3,.03,.45-2.38,1.26-4.76,2.53-7.14,3.79Z"/><path class="cls-14" d="M171.56,54.12c-.05-.15-.11-.29-.13-.44,0-.06,.1-.13,.15-.19,0,.21-.01,.42-.02,.63Z"/><path class="cls-14" d="M161.37,52.96c-.38,.38-.77,.76-1.15,1.14,.38-.38,.77-.76,1.15-1.14Z"/><path class="cls-16" d="M159.63,35.76l-1.13,.09c.38-.2,.75-.41,1.13-.61,0,.17,0,.35,0,.52Z"/><path class="cls-15" d="M173.35,76.27c.74-.17,1.48-.35,2.21-.52-.74,.17-1.48,.35-2.21,.52Z"/></g></g></svg>